<?xml version="1.0" standalone="no"?>
<!DOCTYPE svg PUBLIC "-//W3C//DTD SVG 20010904//EN"
 "http://www.w3.org/TR/2001/REC-SVG-20010904/DTD/svg10.dtd">
<svg version="1.0" xmlns="http://www.w3.org/2000/svg"
 width="924.000000pt" height="265.000000pt" viewBox="0 0 924.000000 265.000000"
 preserveAspectRatio="xMidYMid meet">

<g transform="translate(0.000000,265.000000) scale(0.100000,-0.100000)"
fill="#000000" stroke="none">
<path d="M8087 2543 c-12 -12 -7 -79 7 -99 12 -16 17 -17 28 -6 11 11 10 12
-4 7 -10 -4 -18 -3 -19 1 0 5 -2 19 -3 31 -4 37 11 49 19 14 7 -32 25 -43 25
-16 0 21 -28 75 -39 75 -4 0 -11 -3 -14 -7z"/>
<path d="M8201 2532 c-13 -25 -14 -59 -2 -66 5 -4 8 5 7 18 -2 14 1 30 5 38 6
9 9 4 9 -14 0 -16 5 -28 10 -28 14 0 12 33 -4 55 -13 18 -14 18 -25 -3z"/>
<path d="M8310 2511 c-13 -24 -14 -59 -1 -45 5 5 11 18 14 29 4 15 5 13 6 -7
0 -16 6 -28 11 -28 11 0 12 15 4 48 -8 27 -20 28 -34 3z"/>
<path d="M8399 2483 c-16 -33 -19 -48 -11 -51 7 -2 10 -8 7 -13 -4 -5 -1 -17
5 -26 9 -15 11 -15 7 -2 -3 9 0 36 6 60 10 39 12 41 17 19 4 -14 3 -40 -1 -58
-6 -27 -5 -31 6 -22 22 19 27 65 11 104 -8 20 -17 36 -20 36 -2 0 -14 -21 -27
-47z"/>
<path d="M8517 2490 c-26 -31 -34 -73 -19 -97 5 -8 8 1 9 23 1 19 4 38 8 42
13 13 23 -22 14 -52 l-8 -31 19 24 c20 23 25 70 11 105 -6 17 -10 15 -34 -14z"/>
<path d="M7903 2490 c-17 -26 -16 -52 0 -74 12 -16 13 -13 10 20 l-4 39 16
-27 c9 -16 18 -28 20 -28 12 0 3 50 -12 69 -18 22 -18 22 -30 1z"/>
<path d="M8006 2468 c-18 -26 -20 -47 -5 -68 9 -13 10 -13 8 0 -3 32 1 51 11
45 6 -3 10 -16 10 -28 0 -15 3 -18 8 -9 10 15 3 70 -8 77 -5 3 -16 -5 -24 -17z"/>
<path d="M7817 2466 c-15 -38 -7 -82 17 -105 30 -29 46 -20 46 24 0 44 -52
110 -63 81z m33 -51 c8 5 23 -55 15 -63 -11 -12 -28 19 -31 55 -1 21 0 30 3
20 2 -9 8 -15 13 -12z"/>
<path d="M8637 2463 c-20 -24 -31 -66 -22 -94 6 -18 9 -20 16 -7 5 8 7 25 4
36 -2 12 0 24 6 27 5 4 9 -1 9 -10 0 -9 4 -14 9 -11 15 10 -1 -49 -17 -61 -9
-7 -11 -13 -5 -13 15 0 44 35 45 56 2 30 -12 94 -21 94 -4 0 -15 -8 -24 -17z"/>
<path d="M8267 2453 c-4 -6 -9 -27 -13 -49 -5 -31 -1 -45 16 -67 21 -26 24
-27 38 -13 25 25 20 82 -10 112 -14 14 -28 22 -31 17z m30 -73 c16 -42 10 -68
-12 -50 -7 6 -11 25 -10 43 4 47 6 54 12 37 2 -8 7 -22 10 -30z"/>
<path d="M7720 2408 c0 -18 5 -40 11 -48 8 -12 10 -9 6 13 -5 31 12 37 20 7 3
-11 9 -17 14 -15 10 7 -8 57 -24 67 -21 14 -27 9 -27 -24z"/>
<path d="M8735 2428 c-40 -21 -61 -77 -36 -92 5 -4 7 3 4 14 -3 11 2 27 11 36
22 22 32 10 18 -20 -9 -20 -9 -24 3 -20 21 9 47 94 28 94 -5 0 -17 -6 -28 -12z"/>
<path d="M7796 2380 c14 -95 59 -184 139 -270 25 -28 37 -57 58 -139 15 -57
25 -106 22 -109 -20 -20 -229 176 -317 297 -54 74 -66 85 -38 35 65 -120 209
-276 318 -347 40 -26 72 -53 72 -62 0 -8 18 -63 40 -122 22 -59 38 -113 36
-119 -3 -7 1 -15 9 -18 8 -3 19 -15 26 -27 9 -19 2 -16 -42 16 -71 50 -107 86
-51 50 23 -15 45 -25 48 -23 3 3 -32 31 -78 61 -46 30 -112 83 -147 118 -58
57 -61 59 -31 19 56 -75 121 -138 213 -207 81 -61 88 -69 103 -120 25 -86 13
-96 -49 -36 -29 28 -107 85 -173 127 -204 128 -298 232 -357 391 -31 84 -36
70 -6 -18 35 -106 86 -187 171 -273 l80 -82 -53 10 c-95 17 -256 102 -351 185
l-43 37 45 -48 c27 -29 36 -44 23 -37 -28 14 -103 14 -103 0 0 -6 15 -26 34
-45 26 -26 42 -34 69 -34 41 0 53 12 37 37 -9 16 -10 15 -5 -4 6 -21 3 -23
-27 -23 -25 0 -29 3 -18 10 13 8 13 10 -1 10 -9 0 -26 9 -39 20 l-22 19 32 -4
c17 -2 37 -9 45 -15 9 -8 15 -8 20 0 4 7 24 -2 53 -24 42 -30 141 -84 182 -99
8 -3 -7 -6 -34 -6 l-48 -1 17 -27 c10 -16 27 -36 39 -46 16 -13 6 -11 -38 8
-66 28 -86 32 -41 8 44 -24 126 -86 159 -121 l28 -30 -63 -7 c-35 -4 -84 -2
-109 4 -62 14 -62 6 1 -14 35 -12 83 -18 142 -18 l90 1 -29 -24 c-16 -13 -38
-29 -49 -36 -17 -10 -18 -9 -8 4 11 12 8 14 -20 11 l-32 -3 30 15 c28 13 28
14 7 15 -27 0 -62 -17 -62 -30 0 -4 14 -12 32 -15 26 -6 29 -9 14 -17 -9 -5
-45 -16 -79 -24 l-62 -14 73 4 c86 6 139 28 207 88 46 40 49 41 122 42 73 1
75 0 108 -35 46 -51 59 -121 51 -269 -10 -177 -33 -231 -100 -244 -19 -4 -51
-20 -71 -36 -21 -17 -43 -30 -49 -30 -6 0 -22 -9 -36 -20 -21 -16 -37 -19 -95
-15 -53 3 -61 2 -35 -4 19 -5 50 -15 67 -22 29 -12 37 -11 62 4 40 23 55 22
41 -3 -14 -26 -73 -56 -129 -65 -24 -4 -59 -14 -77 -21 -18 -8 -60 -14 -91
-14 -59 0 -104 -19 -102 -43 0 -8 2 -8 6 1 9 23 54 33 111 26 l53 -6 -35 -33
c-32 -29 -35 -36 -33 -83 2 -52 17 -50 17 3 0 43 113 145 162 145 39 0 107 29
128 55 8 10 24 36 35 59 17 35 28 44 72 58 59 20 83 15 83 -16 -1 -28 -22 -54
-61 -74 -53 -27 -72 -62 -70 -126 1 -55 1 -56 -26 -55 -16 0 -37 4 -48 8 -11
5 -30 4 -43 0 -16 -6 -30 -4 -47 7 -19 12 -31 14 -52 6 l-28 -10 31 -1 c18 -1
39 -10 49 -21 15 -16 26 -19 49 -14 27 6 29 5 17 -10 -9 -11 -29 -16 -61 -16
-33 0 -55 -6 -74 -21 -15 -12 -25 -24 -22 -27 3 -3 14 3 25 12 12 11 31 16 52
14 30 -3 33 -6 47 -63 11 -46 12 -66 4 -90 l-11 -30 25 29 c23 26 25 35 20 76
-5 38 -3 52 15 73 11 15 29 27 40 27 31 0 79 29 80 48 1 9 1 31 0 49 -3 36 14
73 32 73 7 -1 22 -21 34 -46 18 -36 21 -50 12 -66 -8 -15 -8 -31 0 -59 9 -28
8 -44 0 -63 -7 -14 -15 -26 -19 -26 -3 0 -23 -16 -43 -35 -43 -41 -48 -80 -16
-135 21 -36 21 -30 -1 31 -17 46 -10 62 37 93 21 14 48 33 60 42 21 15 24 14
48 -10 17 -17 25 -36 25 -59 0 -23 10 -47 31 -73 42 -53 46 -56 21 -13 -14 23
-22 53 -22 82 0 37 -8 56 -46 112 -45 66 -46 68 -34 106 11 31 10 44 -2 76
-17 42 -9 91 17 113 43 35 66 -51 35 -130 -24 -60 -11 -88 46 -110 23 -8 49
-22 59 -30 17 -14 17 -14 6 7 -6 13 -30 32 -51 43 -22 11 -40 26 -40 33 0 18
52 97 64 97 5 0 28 -17 51 -37 23 -21 49 -42 58 -48 15 -8 16 -16 7 -44 -6
-23 -6 -47 0 -72 8 -28 6 -45 -5 -72 -17 -41 -20 -91 -5 -82 6 3 10 14 10 24
0 10 10 31 22 46 19 24 21 39 19 101 -1 46 2 74 9 74 5 0 10 -8 10 -19 0 -10
5 -32 11 -48 10 -30 24 -39 117 -73 18 -7 44 -26 57 -42 14 -16 25 -26 25 -21
0 20 -50 65 -104 95 -33 18 -61 38 -63 44 -4 13 162 6 192 -8 14 -7 13 -3 -5
11 -14 11 -45 23 -70 26 -91 12 -115 22 -133 60 -12 24 -29 41 -54 52 -20 8
-57 36 -82 61 -26 26 -56 55 -68 64 -22 17 -22 48 -1 48 6 0 34 -22 64 -49 58
-54 96 -68 137 -52 36 14 44 9 102 -60 39 -47 58 -61 86 -65 44 -7 50 -11 69
-48 8 -16 26 -36 40 -44 l25 -16 -22 24 c-12 14 -25 37 -28 53 -9 34 -49 67
-82 67 -31 0 -26 22 8 31 60 17 126 1 190 -45 8 -6 1 2 -15 17 -43 39 -83 59
-123 60 -43 1 -37 19 10 30 20 5 37 13 37 17 0 5 7 16 16 24 8 9 11 16 6 16
-5 0 -17 -9 -27 -20 -10 -12 -25 -18 -33 -15 -9 3 -32 -6 -53 -20 -53 -34 -92
-33 -119 4 -28 40 -54 46 -105 26 -54 -20 -60 -17 -158 71 -78 70 -120 132
-89 129 9 -1 31 -15 48 -33 21 -21 46 -34 73 -38 46 -7 47 -23 1 -18 -16 2
-30 0 -30 -4 0 -15 103 -112 119 -112 11 1 6 8 -14 23 -81 60 -81 83 -1 72 28
-3 79 -7 114 -8 52 -2 60 0 45 11 -9 6 -38 12 -65 12 -26 0 -62 6 -80 14 -18
7 -46 18 -63 23 -48 14 -60 50 -60 188 0 135 11 178 58 231 34 40 70 61 124
73 33 7 46 4 98 -25 60 -33 155 -76 155 -70 0 1 -29 23 -65 47 -35 24 -65 47
-65 50 0 3 36 9 79 12 44 3 94 12 111 19 29 12 26 13 -52 13 -46 0 -121 4
-168 9 -95 9 -187 -3 -259 -35 -24 -11 -46 -17 -49 -15 -2 3 2 22 9 43 10 32
13 35 20 18 6 -16 8 -17 8 -3 1 9 6 20 13 24 8 5 9 0 6 -14 -4 -12 -2 -20 3
-16 11 6 12 54 1 54 -4 0 -13 -5 -20 -12 -7 -7 -12 -8 -12 -2 0 13 50 84 72
102 22 18 104 30 257 37 l135 6 -27 -21 c-15 -12 -27 -26 -27 -33 0 -6 6 -3
13 8 15 19 67 30 67 14 0 -5 -15 -15 -32 -23 l-33 -14 28 -1 c29 -1 87 27 87
41 0 5 -7 11 -15 14 -27 11 -16 21 30 27 48 7 148 37 142 43 -2 2 -19 -1 -38
-7 -41 -13 -249 -19 -299 -9 -19 4 -27 8 -16 9 10 0 35 11 54 23 l36 22 -40
18 c-39 17 -89 15 -78 -3 3 -5 -2 -6 -10 -3 -8 3 -19 -3 -25 -15 -15 -28 -14
-38 2 -16 16 21 81 32 75 13 -3 -7 -20 -16 -39 -21 -30 -8 -32 -10 -14 -18 13
-5 -7 -8 -55 -8 l-75 -1 75 48 c185 118 190 121 270 128 67 6 123 18 172 39
15 6 15 3 6 -29 -9 -28 -9 -39 1 -49 10 -9 11 -9 6 5 -4 9 0 29 9 45 8 15 15
22 16 14 0 -11 5 -10 20 4 11 10 32 20 47 21 l27 3 -29 -19 c-25 -17 -27 -20
-10 -20 15 -1 12 -4 -11 -14 -37 -16 -53 -36 -29 -36 31 0 71 29 93 68 12 22
22 43 22 47 0 12 -108 -3 -205 -29 -32 -9 -79 -16 -103 -16 l-44 0 56 61 c82
89 104 138 24 55 -49 -52 -95 -85 -211 -151 l-149 -85 7 32 c27 125 128 365
206 488 36 57 6 21 -55 -64 -31 -44 -73 -109 -94 -145 l-36 -65 -9 39 c-5 22
-7 90 -4 150 l4 110 -14 -65 c-12 -57 -13 -100 -10 -285 0 -22 -11 -81 -24
-131 -22 -86 -27 -94 -64 -118 -22 -15 -51 -34 -64 -44 l-24 -17 6 125 c4 69
9 136 12 150 5 18 4 21 -3 10 -15 -23 -42 -134 -57 -237 -16 -104 -37 -163
-58 -163 -9 0 -22 29 -37 81 -25 86 -25 76 5 284 2 17 -2 5 -11 -25 -24 -90
-30 -240 -11 -313 9 -34 19 -75 22 -92 l7 -30 10 25 c5 14 23 47 40 73 17 27
37 72 44 100 l12 52 1 -39 1 -40 28 26 c27 26 162 105 162 95 0 -3 -25 -20
-55 -37 -30 -17 -57 -35 -60 -40 -3 -5 31 -6 77 -3 103 7 98 -4 -7 -17 -137
-17 -177 -61 -236 -255 l-34 -110 -7 70 c-3 39 -14 124 -23 190 -26 194 -23
243 26 414 23 83 44 149 47 147 2 -2 -1 -21 -7 -43 -18 -62 -13 -83 8 -36 11
23 43 68 73 100 29 32 65 74 80 93 27 36 118 212 118 227 -1 4 -7 -3 -14 -16
-12 -22 -13 -20 -8 27 4 42 2 52 -11 52 -21 0 -47 -44 -47 -79 0 -43 15 -46
17 -4 2 36 22 71 24 43 1 -8 0 -19 -1 -25 -8 -38 -8 -45 1 -40 37 23 -70 -142
-141 -217 l-69 -73 24 92 c28 107 46 226 44 286 -2 32 -3 35 -6 12 -9 -83 -28
-161 -66 -275 -39 -119 -42 -123 -48 -87 -3 20 -8 39 -11 42 -7 7 -35 -26 -42
-52 -10 -33 8 -28 22 5 10 25 11 24 9 -21 -2 -42 -1 -46 12 -30 13 17 13 17 7
-2 -19 -52 -66 -231 -66 -247 0 -39 -18 -5 -80 148 l-63 157 37 91 c41 103 72
222 80 311 5 55 3 52 -22 -45 -16 -58 -41 -134 -56 -170 -15 -36 -32 -77 -38
-92 -5 -16 -14 -28 -18 -28 -10 0 -47 154 -60 250 -8 58 -9 53 -5 -40 5 -101
4 -104 -13 -84 -72 88 -107 142 -128 201 -23 62 -24 64 -18 23z m55 -890 c26
0 54 -12 95 -39 65 -43 111 -87 101 -97 -3 -4 -50 -14 -103 -24 l-97 -17 -47
41 c-26 23 -55 47 -66 53 -14 9 -15 13 -4 12 70 -6 86 18 45 61 l-28 30 34
-10 c19 -6 50 -10 70 -10z m156 -36 c72 -52 155 -142 184 -200 15 -32 22 -75
29 -173 4 -72 6 -140 3 -151 -3 -12 2 -29 12 -40 18 -20 18 -21 -3 -40 -21
-20 -21 -20 -28 3 -4 12 -8 90 -9 172 0 139 -2 154 -25 199 -35 70 -63 88
-141 88 -76 1 -45 15 36 17 l50 1 -70 68 c-38 37 -83 78 -100 91 -48 36 -6 12
62 -35z m-281 21 c16 -3 36 -7 44 -9 8 -2 16 -10 18 -19 3 -12 -4 -17 -23 -17
-15 0 -24 4 -20 10 3 6 -1 10 -10 10 -9 0 -26 10 -38 21 -12 12 -17 19 -11 16
6 -3 24 -9 40 -12z m841 -216 c-105 -12 -203 -45 -244 -82 -28 -26 -36 -42
-40 -81 -5 -42 -24 -68 -39 -54 -9 10 17 101 37 130 40 56 163 97 289 96 l65
-1 -68 -8z m-301 -306 c-11 -11 -19 6 -11 24 8 17 8 17 12 0 3 -10 2 -21 -1
-24z m-1 -301 c14 -42 23 -55 49 -66 31 -14 124 -106 107 -106 -6 0 -31 18
-56 40 -25 22 -53 40 -61 40 -15 0 -18 -6 -28 -50 -3 -14 -12 -34 -21 -45 -13
-17 -13 -15 1 20 15 37 15 44 -1 95 -27 86 -31 87 -84 30 -28 -30 -56 -50 -68
-50 -24 0 -53 -34 -53 -62 0 -10 -4 -18 -9 -18 -14 0 0 54 21 77 11 12 30 24
43 27 33 8 75 78 75 126 0 22 -1 40 -3 40 -1 0 -20 -9 -42 -20 -22 -11 -50
-20 -63 -20 -13 0 -33 -5 -45 -11 -22 -10 -22 -10 -2 6 11 9 39 21 63 27 32 8
49 20 68 47 13 19 24 42 24 51 1 21 65 -113 85 -178z"/>
<path d="M7820 1428 c10 -36 61 -88 86 -88 8 0 24 5 35 10 18 10 18 13 4 40
-16 32 -51 53 -102 64 l-32 7 9 -33z m65 -17 c-5 8 1 6 12 -3 11 -10 24 -18
30 -18 6 0 13 -6 16 -14 8 -20 -25 -31 -38 -13 -5 8 -21 17 -33 21 -13 5 -21
10 -18 13 3 4 0 13 -7 22 -9 12 -5 11 17 -3 18 -11 26 -13 21 -5z"/>
<path d="M8062 2395 c-18 -39 -14 -90 8 -116 20 -24 20 -24 35 -5 19 25 19 79
0 116 -19 37 -28 38 -43 5z m40 -112 c-6 -19 -20 -16 -33 8 -9 17 -8 20 2 14
9 -6 11 -3 6 9 -4 10 -4 30 0 44 6 25 7 24 18 -18 7 -25 10 -51 7 -57z"/>
<path d="M8191 2354 c-16 -20 -21 -38 -18 -66 6 -56 23 -69 49 -38 16 19 19
34 15 68 -7 60 -19 70 -46 36z m25 -63 c4 -43 -7 -59 -25 -38 -7 10 -7 24 0
51 12 45 19 42 25 -13z"/>
<path d="M8438 2369 c-10 -5 -18 -20 -17 -32 l0 -22 9 23 c13 31 24 28 15 -5
-4 -19 -3 -25 4 -18 12 12 23 65 13 65 -4 0 -15 -5 -24 -11z"/>
<path d="M8822 2347 c-12 -13 -22 -32 -22 -43 1 -15 4 -14 16 9 20 36 28 34
20 -5 -5 -31 -5 -32 9 -14 16 21 21 76 7 76 -5 0 -18 -10 -30 -23z"/>
<path d="M7640 2316 c0 -55 38 -106 77 -106 24 0 25 2 20 43 -4 32 -14 49 -43
75 -21 17 -41 32 -46 32 -4 0 -8 -20 -8 -44z m51 -21 c3 2 13 -11 24 -30 21
-40 15 -53 -17 -37 -13 6 -17 11 -9 11 11 1 10 6 -4 21 -10 12 -19 30 -20 42
-2 19 -1 19 10 5 7 -9 14 -15 16 -12z"/>
<path d="M7886 2334 c-15 -39 1 -104 26 -104 7 0 7 4 1 13 -5 6 -10 28 -11 47
l-2 35 19 -45 20 -45 0 36 c1 22 -6 43 -19 57 -25 26 -26 26 -34 6z"/>
<path d="M7550 2308 c0 -14 7 -32 17 -39 15 -13 15 -12 5 8 -17 30 -15 41 3
17 8 -10 15 -14 15 -8 0 6 -9 19 -20 29 -19 18 -20 17 -20 -7z"/>
<path d="M8003 2294 c-24 -38 -24 -105 1 -133 58 -64 90 43 38 128 l-20 33
-19 -28z m27 -62 c0 -15 2 -15 11 -2 8 12 9 10 7 -10 -1 -14 1 -30 4 -35 4 -6
3 -17 -2 -25 -8 -13 -13 -11 -32 8 -12 12 -17 22 -11 22 8 0 10 12 6 37 -4 26
-3 34 5 29 7 -4 12 -15 12 -24z"/>
<path d="M8588 2302 c-16 -18 -33 -62 -24 -62 3 0 12 12 21 28 l16 27 -6 -27
c-6 -30 9 -39 19 -12 17 44 -1 75 -26 46z"/>
<path d="M8735 2296 c-35 -53 -39 -122 -8 -147 22 -19 66 30 66 74 0 38 -21
97 -34 97 -5 0 -16 -11 -24 -24z m37 -60 c6 4 5 -3 -2 -16 -6 -12 -9 -28 -6
-35 2 -7 -2 -19 -10 -26 -13 -10 -17 -10 -25 2 -12 19 -11 36 1 44 6 3 7 18 4
32 -5 18 -3 24 5 19 6 -4 12 0 12 11 1 10 4 6 6 -10 3 -15 9 -25 15 -21z"/>
<path d="M8399 2254 c-12 -20 -22 -50 -21 -66 1 -46 11 -45 18 1 4 22 10 41
15 41 4 0 9 6 12 13 2 6 2 -1 -1 -17 -3 -20 -1 -26 8 -21 9 6 9 3 0 -14 -6
-12 -10 -30 -7 -39 2 -12 8 -7 21 19 15 30 16 42 7 77 -7 23 -16 42 -21 42 -4
0 -18 -16 -31 -36z"/>
<path d="M8248 2243 c-15 -26 -23 -53 -23 -85 0 -58 21 -87 23 -31 0 21 1 48
1 61 1 13 5 21 10 17 5 -3 12 7 14 22 3 22 4 20 6 -10 0 -23 5 -36 11 -32 6 4
6 -3 0 -21 -6 -15 -8 -29 -5 -32 3 -3 -3 -14 -12 -24 -16 -18 -16 -18 0 -12
22 8 47 55 47 89 0 32 -26 95 -39 95 -5 0 -20 -17 -33 -37z"/>
<path d="M8902 2273 c-12 -5 -42 -54 -42 -69 0 -4 13 9 30 27 33 38 38 33 15
-11 -9 -17 -11 -30 -6 -30 14 0 31 25 41 59 7 26 6 31 -8 30 -9 0 -23 -3 -30
-6z"/>
<path d="M7770 2236 c-27 -71 -5 -165 45 -188 34 -15 52 -4 57 35 6 52 -8 90
-51 138 l-39 44 -12 -29z m47 -86 c4 -12 7 -11 13 5 7 16 9 12 9 -17 1 -21 6
-38 11 -38 6 0 10 -11 10 -25 0 -33 -20 -32 -51 2 -13 14 -18 23 -11 19 16
-10 15 -1 -4 36 -9 16 -11 27 -5 24 6 -4 8 7 5 31 -5 41 -5 41 23 -37z"/>
<path d="M7535 2230 c-18 -58 49 -154 104 -148 24 3 26 7 24 42 -3 45 -29 78
-85 107 -36 18 -37 18 -43 -1z m72 -66 c7 6 53 -49 53 -63 0 -15 -30 -13 -60
4 -22 13 -23 14 -5 15 18 1 16 4 -10 26 -16 15 -24 23 -17 20 14 -8 17 10 2
19 -5 3 -10 11 -10 17 0 6 10 -1 21 -16 12 -15 24 -25 26 -22z"/>
<path d="M8626 2220 c-28 -34 -34 -86 -16 -134 12 -33 33 -33 59 0 24 30 26
65 10 115 -17 51 -24 53 -53 19z m34 -65 c5 3 5 -7 0 -24 -4 -16 -6 -31 -4
-34 3 -2 -2 -10 -11 -17 -18 -15 -20 -14 -29 25 -5 23 -4 27 4 15 9 -12 10 -7
8 22 -2 20 0 34 4 32 4 -3 9 5 10 18 1 15 3 11 5 -10 2 -18 8 -30 13 -27z"/>
<path d="M7460 2172 c0 -18 10 -37 27 -53 l26 -24 -16 25 c-25 36 -22 61 3 31
19 -22 20 -22 20 -3 0 19 -33 52 -52 52 -5 0 -8 -13 -8 -28z"/>
<path d="M8956 2180 c-32 -20 -64 -70 -46 -70 5 0 10 5 10 11 0 5 4 8 9 4 5
-3 12 3 15 12 3 10 15 24 26 31 21 13 21 13 3 -15 -10 -15 -16 -27 -13 -28 2
0 -3 -11 -12 -24 -15 -20 -20 -22 -33 -11 -13 11 -14 10 -9 -4 7 -19 15 -20
47 -5 33 15 62 74 51 104 -8 19 -13 19 -48 -5z"/>
<path d="M8139 2129 c-31 -44 -35 -106 -10 -146 50 -79 109 51 65 143 -9 19
-20 34 -24 34 -5 0 -19 -14 -31 -31z m42 -69 c8 11 8 8 3 -10 -4 -14 -7 -37
-6 -52 1 -35 -23 -43 -37 -12 -14 31 -14 37 0 29 7 -5 8 5 4 29 -5 24 -3 36 4
36 6 0 12 12 13 28 1 15 3 7 5 -18 3 -33 7 -40 14 -30z"/>
<path d="M8800 2105 c-48 -35 -70 -74 -70 -122 0 -40 2 -43 26 -43 32 0 84 50
85 82 2 33 -1 101 -4 105 -2 1 -18 -8 -37 -22z m11 -43 c-15 -27 -14 -45 1
-36 7 4 2 -7 -11 -24 -12 -18 -19 -32 -14 -32 13 0 -21 -20 -34 -20 -8 0 -13
13 -13 31 0 24 4 30 15 25 10 -4 15 1 15 15 0 11 7 22 15 25 8 3 17 15 21 26
3 11 8 17 11 15 2 -3 0 -14 -6 -25z"/>
<path d="M9062 2093 c-31 -31 -44 -84 -23 -97 4 -3 6 5 4 17 -2 14 6 33 22 52
17 20 23 23 16 9 -6 -12 -8 -24 -5 -27 3 -3 0 -15 -6 -27 -10 -18 -9 -21 2
-18 19 7 41 78 30 103 -8 19 -10 18 -40 -12z"/>
<path d="M8363 2098 c-6 -7 -13 -22 -17 -33 -5 -16 -2 -15 14 5 l19 25 -5 -28
c-3 -18 -1 -26 6 -22 12 8 14 65 1 65 -5 0 -13 -6 -18 -12z"/>
<path d="M8488 2093 c-40 -47 -48 -91 -22 -133 14 -23 13 -13 -3 27 -4 10 -2
14 4 10 6 -4 13 10 18 36 7 40 8 41 15 15 5 -15 4 -44 0 -65 l-9 -38 21 25
c17 20 19 34 14 74 -7 59 -17 73 -38 49z"/>
<path d="M7440 2050 c0 -61 19 -102 56 -119 34 -15 44 -3 44 53 0 33 -7 45
-40 78 -23 21 -45 38 -50 38 -6 0 -10 -23 -10 -50z m61 -29 c6 10 9 7 9 -11 0
-15 5 -31 11 -37 7 -7 9 -19 6 -28 -6 -14 -9 -14 -32 1 -16 10 -22 20 -16 24
8 4 6 12 -3 25 -8 11 -11 25 -8 33 4 11 7 11 15 -3 8 -14 11 -15 18 -4z"/>
<path d="M7690 2046 c0 -32 29 -65 60 -68 36 -4 37 26 2 62 -37 37 -62 39 -62
6z m66 -33 c16 -21 18 -33 5 -33 -12 0 -41 29 -41 41 0 15 22 10 36 -8z"/>
<path d="M8962 2031 c-31 -32 -49 -75 -29 -68 7 2 16 13 22 25 5 12 15 24 21
26 15 6 10 -40 -7 -60 -16 -19 -4 -30 16 -14 27 23 39 120 15 120 -5 0 -22
-13 -38 -29z"/>
<path d="M6874 2033 c-8 -8 -24 -33 -35 -54 -16 -33 -17 -39 -4 -39 16 0 105
77 105 90 0 15 -51 17 -66 3z"/>
<path d="M7890 2017 c0 -22 8 -41 23 -55 29 -28 44 -29 17 -2 -11 11 -20 28
-20 38 1 13 6 10 25 -13 18 -22 25 -25 25 -13 0 18 -46 78 -61 78 -5 0 -9 -15
-9 -33z"/>
<path d="M3775 2016 c-21 -31 -5 -66 28 -66 46 0 66 59 28 80 -29 15 -39 13
-56 -14z"/>
<path d="M8595 2016 c-9 -14 -15 -37 -12 -53 l4 -28 8 33 c11 48 23 48 19 -1
-3 -39 -2 -40 11 -23 16 21 18 38 9 74 -8 29 -20 28 -39 -2z"/>
<path d="M2374 2019 c-46 -13 -76 -51 -78 -97 -1 -60 20 -88 110 -148 118 -77
137 -112 89 -159 -49 -50 -138 -20 -151 50 -7 37 -14 41 -45 25 -27 -15 -25
-61 4 -88 66 -62 222 -51 271 19 21 30 21 98 -1 129 -22 33 -35 43 -115 91
-73 43 -88 61 -88 108 0 71 126 68 144 -4 8 -32 51 -35 61 -5 20 64 -96 110
-201 79z"/>
<path d="M4832 2021 c-11 -6 -13 -51 -12 -207 0 -109 3 -209 6 -221 7 -25 34
-37 62 -29 16 5 18 18 18 109 l-1 102 25 -3 c34 -4 55 -31 80 -106 25 -75 51
-106 88 -106 51 0 72 47 30 65 -15 6 -32 33 -49 75 -20 50 -34 69 -58 80 -17
8 -31 17 -31 20 1 3 18 16 40 30 81 49 108 182 40 190 -40 6 -46 1 -42 -39 2
-22 -1 -56 -8 -75 -13 -40 -71 -96 -100 -96 -19 0 -20 7 -20 98 0 99 -7 122
-39 122 -9 0 -22 -4 -29 -9z"/>
<path d="M7350 2000 c0 -35 39 -81 67 -79 17 1 17 2 0 6 -9 2 -15 9 -12 14 4
5 2 9 -4 9 -6 0 -16 10 -22 23 -11 20 -11 21 4 8 10 -7 17 -10 17 -5 0 5 7 0
15 -10 8 -11 18 -17 21 -13 13 13 -6 37 -46 57 l-40 20 0 -30z"/>
<path d="M7590 2017 c0 -29 49 -82 85 -91 20 -5 20 -5 1 9 -11 8 -16 15 -10
15 5 1 -2 7 -16 15 -14 8 -21 14 -16 15 6 0 1 7 -10 16 -18 14 -17 14 6 2 14
-7 27 -12 30 -13 3 0 16 -8 29 -17 17 -12 22 -22 17 -35 -6 -14 -5 -15 5 -6
20 20 -8 73 -47 89 -42 17 -74 18 -74 1z"/>
<path d="M8865 2000 c-22 -24 -13 -39 10 -16 25 24 29 19 10 -10 -9 -14 -15
-28 -12 -30 7 -7 47 46 47 62 0 21 -34 17 -55 -6z"/>
<path d="M9073 1975 c-17 -7 -39 -25 -48 -39 -19 -29 -16 -78 5 -83 12 -4 13
-3 1 5 -15 11 -7 67 9 57 5 -3 11 3 14 12 3 10 18 23 32 30 25 12 25 12 10
-13 -9 -13 -14 -24 -11 -24 4 0 -3 -12 -14 -27 -24 -30 -22 -39 7 -24 20 10
62 85 62 109 0 16 -27 15 -67 -3z"/>
<path d="M7754 1924 c10 -43 59 -84 99 -83 21 1 25 3 12 6 -11 3 -24 11 -28
19 -4 8 -13 14 -20 14 -7 0 -18 9 -25 21 -12 19 -11 19 8 9 11 -6 20 -8 20 -4
0 4 8 0 18 -9 10 -10 22 -14 25 -10 4 3 7 0 7 -7 0 -7 2 -11 5 -8 10 9 -6 36
-29 52 -13 8 -40 18 -61 22 -38 7 -38 7 -31 -22z"/>
<path d="M8348 1919 c-47 -38 -67 -94 -48 -138 14 -35 21 -37 55 -15 34 22 58
89 50 141 -3 24 -9 43 -13 43 -4 0 -24 -14 -44 -31z m23 -37 c-14 -27 -14 -45
0 -36 6 3 3 -5 -6 -19 -9 -15 -14 -30 -11 -35 8 -13 -23 -37 -33 -26 -5 5 -11
25 -15 44 -6 32 -5 33 8 15 15 -19 15 -19 16 8 0 15 7 30 15 33 8 3 17 15 21
26 3 11 8 17 11 15 2 -3 0 -14 -6 -25z"/>
<path d="M8920 1941 c0 -6 4 -13 10 -16 6 -3 7 1 4 9 -7 18 -14 21 -14 7z"/>
<path d="M8104 1905 c-8 -42 8 -85 39 -104 21 -13 22 -13 4 6 -9 11 -14 22
-11 26 3 3 2 12 -2 19 -11 17 -13 48 -2 42 4 -3 8 -13 8 -22 0 -13 2 -14 9 -4
5 9 10 -1 15 -30 6 -36 9 -40 18 -25 13 25 4 59 -28 96 -33 40 -42 39 -50 -4z"/>
<path d="M7623 1880 c6 -47 19 -65 59 -86 34 -18 48 -11 48 21 0 31 -43 80
-81 94 l-32 11 6 -40z m58 -20 c0 9 4 7 11 -7 6 -13 15 -23 20 -23 4 0 8 -9 8
-20 0 -23 -4 -24 -31 -9 -11 5 -17 14 -14 19 3 5 1 11 -4 15 -5 3 -17 20 -25
38 l-16 32 25 -30 c16 -19 25 -25 26 -15z"/>
<path d="M2860 1902 c-62 -28 -92 -82 -93 -167 -1 -110 53 -170 153 -170 99 0
154 60 154 169 0 78 -23 126 -73 154 -38 22 -108 28 -141 14z m106 -43 c15
-17 20 -39 22 -113 3 -78 0 -96 -18 -124 -17 -28 -25 -33 -53 -30 -50 5 -69
51 -65 159 2 69 7 91 22 108 24 27 68 27 92 0z"/>
<path d="M3242 1893 c-11 -22 -5 -43 13 -43 21 0 25 -25 25 -150 0 -129 8
-148 54 -136 25 6 25 7 19 89 -10 137 22 223 78 215 38 -5 49 -42 49 -170 0
-107 2 -118 20 -128 11 -6 30 -8 42 -5 22 6 23 9 20 103 -1 53 -5 117 -8 141
-13 97 -106 134 -179 70 -23 -20 -35 -26 -35 -17 0 41 -80 65 -98 31z"/>
<path d="M3777 1903 c-9 -8 -9 -280 -1 -310 7 -25 34 -37 62 -29 15 5 17 20
14 163 -2 89 -8 164 -14 171 -11 13 -50 17 -61 5z"/>
<path d="M4113 1900 c-53 -22 -67 -96 -22 -121 27 -14 77 -3 60 14 -15 15 -14
60 1 75 17 17 63 15 78 -3 7 -8 15 -35 17 -58 l5 -44 -48 -7 c-63 -8 -127 -40
-144 -70 -29 -54 -6 -109 51 -121 38 -9 108 25 131 62 l17 28 1 -25 c1 -53 53
-83 96 -55 29 19 28 50 -1 50 -18 0 -20 9 -25 105 -6 115 -16 142 -60 165 -31
16 -122 19 -157 5z m137 -194 c0 -50 -76 -110 -106 -85 -40 33 9 109 71 109
30 0 35 -3 35 -24z"/>
<path d="M5329 1903 c-7 -48 6 -265 16 -291 29 -69 150 -68 184 2 8 18 10 18
10 4 1 -24 37 -58 60 -58 23 0 51 25 51 46 0 8 -9 14 -20 14 -19 0 -20 7 -20
119 0 148 -8 173 -52 169 l-32 -3 0 -122 c-1 -107 -3 -125 -22 -150 -12 -15
-32 -30 -44 -31 -41 -6 -50 21 -50 151 0 134 -7 157 -50 157 -17 0 -30 -3 -31
-7z"/>
<path d="M5802 1893 c-11 -22 -5 -43 13 -43 21 0 25 -25 25 -150 0 -106 2
-120 18 -129 10 -6 27 -8 38 -5 17 5 19 15 19 127 0 101 3 128 18 150 31 47
80 23 62 -32 -8 -26 22 -35 51 -16 27 17 32 60 11 89 -7 9 -31 20 -54 23 -37
5 -46 2 -73 -25 -16 -17 -30 -25 -30 -18 0 39 -81 62 -98 29z"/>
<path d="M6292 1895 c-52 -23 -62 -80 -19 -110 24 -17 36 -18 56 -6 10 7 11
13 1 31 -18 34 1 70 37 70 39 0 52 -11 63 -51 18 -61 15 -66 -41 -73 -96 -13
-159 -60 -159 -118 0 -30 30 -67 55 -69 63 -6 83 0 119 34 l35 34 10 -29 c13
-36 48 -53 84 -39 19 8 27 18 27 35 0 18 -4 24 -14 20 -22 -8 -26 7 -30 108
-4 108 -16 141 -61 163 -41 19 -119 19 -163 0z m148 -176 c0 -23 -43 -87 -66
-98 -24 -11 -54 -6 -54 9 0 5 -3 15 -6 24 -10 27 48 76 90 76 20 0 36 -5 36
-11z"/>
<path d="M6767 1894 c-28 -15 -47 -49 -47 -84 0 -27 54 -85 92 -100 45 -18 98
-58 98 -74 0 -37 -60 -57 -103 -35 -28 15 -37 28 -37 57 0 26 -30 31 -50 8
-19 -24 -7 -59 30 -84 30 -21 44 -23 97 -19 77 6 119 33 129 82 9 50 -13 77
-97 121 -76 40 -102 72 -79 99 9 11 26 15 49 13 33 -3 48 -17 64 -62 1 -5 13
-6 25 -2 35 11 30 61 -8 81 -37 19 -127 19 -163 -1z"/>
<path d="M7460 1863 c0 -54 35 -118 74 -137 44 -21 66 -20 66 2 0 13 -2 14 -9
4 -7 -11 -16 -10 -47 7 -27 15 -31 20 -14 16 23 -6 22 -4 -10 26 -19 17 -29
29 -22 25 16 -10 15 -1 -4 32 -13 21 -10 19 15 -8 19 -22 31 -29 31 -20 0 11
4 9 12 -5 6 -11 19 -28 29 -38 18 -17 19 -17 19 6 0 35 -35 74 -91 102 l-49
25 0 -37z"/>
<path d="M8463 1863 c-32 -58 -36 -94 -17 -142 9 -22 20 -41 24 -41 4 0 19 9
33 20 46 36 45 118 -1 178 l-18 23 -21 -38z m38 -77 c15 9 0 -68 -17 -85 -11
-12 -15 -11 -24 13 -13 36 -13 56 1 36 8 -11 9 -6 7 22 -2 20 0 34 4 32 4 -3
9 10 10 28 1 27 2 26 5 -10 3 -25 8 -40 14 -36z"/>
<path d="M8675 1867 c-26 -26 -35 -43 -35 -68 0 -53 12 -65 44 -44 15 10 31
26 36 36 13 24 13 96 0 104 -6 4 -26 -9 -45 -28z m26 -25 c-14 -26 -14 -35 -1
-27 6 3 1 -10 -11 -29 -23 -40 -39 -39 -39 2 0 21 2 24 10 12 8 -13 10 -12 10
3 0 18 32 68 38 62 2 -2 -1 -12 -7 -23z"/>
<path d="M8834 1893 c-41 -8 -84 -55 -89 -98 l-5 -40 13 40 c8 25 15 34 18 25
4 -12 8 -10 18 8 6 12 17 22 23 22 6 0 21 8 32 17 12 10 8 3 -8 -15 -17 -17
-24 -32 -18 -32 7 0 -5 -16 -25 -35 l-38 -36 33 12 c38 13 77 61 87 107 7 33
5 34 -41 25z"/>
<path d="M7377 1873 c-28 -27 19 -114 60 -112 17 0 17 1 0 8 -10 4 -17 10 -15
13 2 3 -6 15 -16 27 -22 24 -6 29 18 6 35 -35 35 -8 0 34 -26 32 -35 36 -47
24z"/>
<path d="M7910 1803 c1 -36 31 -103 58 -126 11 -11 36 -20 54 -20 33 -2 33 -1
32 41 -1 49 -36 95 -91 118 -46 20 -53 18 -53 -13z m84 -63 c3 0 3 8 0 18 -4
9 3 3 14 -14 11 -18 25 -35 31 -38 6 -4 11 -16 11 -26 0 -16 -4 -17 -32 -9
-17 5 -36 13 -42 19 -8 8 -5 9 9 5 14 -5 11 2 -13 24 -18 17 -28 31 -22 31 7
0 7 7 0 23 -10 19 -7 18 14 -5 14 -16 27 -28 30 -28z"/>
<path d="M8951 1817 c-14 -6 -26 -18 -29 -25 -3 -11 3 -10 26 2 61 31 62 15 2
-28 l-25 -18 30 6 c29 7 75 47 75 67 0 13 -51 11 -79 -4z"/>
<path d="M7305 1783 c7 -30 32 -63 48 -63 5 0 2 11 -7 25 -18 28 -1 32 21 5
11 -13 12 -13 13 3 0 16 -53 57 -74 57 -4 0 -5 -12 -1 -27z"/>
<path d="M9089 1783 l-24 -28 28 24 c15 14 27 26 27 28 0 8 -8 1 -31 -24z"/>
<path d="M8251 1784 c0 -11 3 -14 6 -6 3 7 2 16 -1 19 -3 4 -6 -2 -5 -13z"/>
<path d="M7717 1757 c-13 -34 43 -93 80 -84 13 3 11 5 -7 6 -20 1 -22 3 -10
11 13 8 13 10 -1 10 -9 0 -25 12 -34 28 l-18 27 21 -19 c12 -11 22 -16 22 -12
0 3 12 -1 26 -11 27 -17 27 -17 15 5 -6 12 -13 22 -15 22 -2 0 -19 7 -39 15
-27 11 -36 12 -40 2z"/>
<path d="M8270 1698 c-25 -41 -26 -89 -2 -118 l18 -23 22 28 c12 15 22 38 22
52 0 25 -25 93 -35 93 -3 0 -14 -15 -25 -32z m25 -29 c-3 -17 -2 -28 4 -25 5
3 8 -7 6 -22 -4 -53 -26 -66 -38 -22 -3 12 -1 18 5 14 7 -5 9 3 5 21 -2 16 0
37 6 47 16 25 18 23 12 -13z"/>
<path d="M8620 1710 c-11 -11 -20 -28 -19 -37 0 -15 2 -14 11 4 6 12 17 24 24
27 11 4 11 -1 -2 -27 l-17 -32 22 19 c21 19 29 66 11 66 -5 0 -19 -9 -30 -20z"/>
<path d="M7590 1660 c0 -41 63 -81 97 -61 15 9 13 10 -11 5 -21 -5 -27 -4 -22
5 4 6 2 11 -4 11 -6 0 -18 6 -26 14 -12 13 -12 15 5 13 11 0 17 -5 14 -11 -3
-5 -1 -6 5 -2 6 4 22 2 34 -5 l23 -11 -20 20 c-23 24 -95 41 -95 22z"/>
<path d="M8814 1663 c-12 -2 -32 -15 -45 -29 l-24 -26 30 -24 c17 -13 39 -24
50 -25 11 0 27 -2 36 -4 9 -1 40 5 70 15 35 12 56 15 60 8 4 -7 9 -6 13 1 4 6
11 9 16 6 5 -3 11 -1 15 5 10 16 35 12 29 -4 -3 -8 -19 -18 -36 -21 -21 -5
-26 -10 -18 -15 27 -17 100 29 100 62 0 14 -75 9 -97 -7 -18 -13 -22 -12 -39
6 -41 45 -99 64 -160 52z m10 -27 c-4 -12 2 -13 32 -6 21 5 40 7 43 4 2 -2 -2
-4 -10 -5 -8 -1 4 -7 26 -15 l40 -14 -47 5 c-27 2 -48 1 -48 -4 0 -5 5 -11 12
-13 6 -2 -12 -3 -41 -2 -67 2 -81 15 -45 43 31 24 46 27 38 7z"/>
<path d="M8417 1640 c-19 -27 -22 -50 -8 -50 5 0 12 10 14 23 3 13 5 6 6 -18
2 -36 3 -38 13 -18 7 15 8 34 2 55 l-10 33 -17 -25z"/>
<path d="M7840 1640 c0 -14 38 -70 60 -87 8 -7 26 -12 40 -12 l25 1 -25 8
c-14 4 -18 9 -10 10 11 1 9 4 -5 11 -12 6 -27 19 -33 30 -12 18 -11 19 5 11
10 -6 23 -11 28 -12 25 -7 45 -26 46 -45 0 -11 3 -14 6 -7 7 19 -14 65 -37 80
-30 18 -100 27 -100 12z"/>
<path d="M7293 1603 c-19 -7 2 -40 38 -59 34 -17 89 -11 89 11 0 36 -82 67
-127 48z m100 -29 c15 -5 25 -24 13 -24 -2 0 -12 -3 -22 -7 -12 -4 -15 -3 -10
5 5 8 -1 12 -18 12 -14 0 -26 4 -26 9 0 12 22 21 35 15 6 -2 18 -7 28 -10z"/>
<path d="M7453 1548 c-31 -15 -29 -23 11 -47 39 -25 94 -27 122 -6 18 14 17
14 -9 5 -36 -13 -40 -13 -31 2 5 8 -2 9 -25 5 -20 -4 -30 -3 -26 3 3 6 -4 10
-17 11 -16 1 -13 3 12 10 20 4 50 4 69 -1 32 -9 33 -9 16 11 -20 21 -84 25
-122 7z"/>
<path d="M8016 1521 c-6 -9 31 -71 42 -71 20 0 20 14 -1 31 -21 18 -21 19 -2
16 27 -4 51 -19 58 -37 5 -13 6 -13 6 1 1 9 -7 23 -18 33 -22 20 -79 38 -85
27z"/>
<path d="M9015 1500 c-43 -9 -73 -27 -91 -56 -20 -30 -11 -42 41 -54 41 -9 78
0 109 28 19 18 50 71 44 77 -8 8 -74 11 -103 5z m33 -46 c-35 -18 -39 -23 -23
-27 12 -3 4 -5 -17 -6 -21 0 -38 -5 -38 -11 0 -12 -20 -13 -39 -1 -12 8 -13
12 -1 26 7 9 21 20 31 26 15 8 17 6 12 -8 -6 -15 -3 -15 21 3 15 11 43 20 62
20 l35 0 -43 -22z"/>
<path d="M8265 1477 c-9 -35 -2 -62 15 -62 21 0 25 58 6 74 -13 11 -16 9 -21
-12z m25 -44 c0 -7 -4 -13 -10 -13 -5 0 -10 12 -10 28 0 21 2 24 10 12 5 -8
10 -21 10 -27z"/>
<path d="M7418 1453 c-36 -6 -35 -12 6 -52 39 -37 96 -45 124 -17 15 15 14 18
-8 40 -26 25 -75 37 -122 29z m130 -51 c7 -23 -37 -21 -84 4 -44 23 -46 25
-15 19 21 -5 31 -3 27 3 -3 5 11 4 31 -3 21 -7 39 -17 41 -23z"/>
<path d="M8568 1414 c-32 -17 -48 -43 -47 -76 1 -18 3 -15 11 12 6 19 13 29
15 22 3 -8 10 -7 21 7 10 10 31 22 47 25 l30 6 -29 -16 c-22 -13 -26 -18 -15
-25 12 -7 11 -9 -1 -9 -9 0 -23 -9 -33 -20 -20 -24 -5 -26 32 -4 25 15 71 71
71 87 0 13 -75 6 -102 -9z"/>
<path d="M8452 1390 c-30 -19 -53 -55 -51 -83 0 -7 5 0 11 16 5 15 14 25 19
21 5 -3 9 -1 9 4 0 6 6 12 14 15 19 8 10 -25 -15 -52 -22 -23 -18 -26 12 -11
22 12 49 61 49 90 0 25 -7 25 -48 0z"/>
<path d="M7610 1380 c-25 -17 32 -60 80 -60 47 0 62 15 16 16 -18 0 -41 4 -52
8 -18 8 -18 8 4 17 13 5 33 4 50 -1 l27 -10 -24 20 c-25 21 -76 26 -101 10z"/>
<path d="M8722 1355 c-37 -31 -40 -50 -13 -65 52 -27 154 0 180 49 15 26 4 32
-73 38 -56 5 -64 3 -94 -22z m27 -11 c-12 -15 -10 -15 25 0 45 19 49 19 41 7
-3 -5 3 -12 12 -14 14 -4 13 -5 -4 -6 -13 0 -23 -5 -23 -11 0 -5 -14 -10 -31
-10 -19 0 -28 -4 -23 -11 4 -8 -1 -9 -17 -4 -34 11 -35 12 -9 40 26 27 51 35
29 9z"/>
<path d="M8959 1349 c-13 -11 -17 -17 -9 -13 27 14 60 13 60 -2 0 -8 -9 -14
-20 -14 -11 0 -20 -4 -20 -10 0 -17 31 -11 68 12 32 20 33 22 16 35 -26 19
-68 16 -95 -8z"/>
<path d="M7428 1333 c-10 -2 -18 -7 -18 -10 0 -24 91 -46 104 -25 3 5 -11 7
-30 6 -24 -2 -34 1 -31 9 2 7 16 11 31 9 19 -3 26 0 22 7 -7 11 -45 13 -78 4z"/>
<path d="M8904 1270 c-30 -12 -38 -28 -24 -45 19 -23 66 -18 97 9 l28 24 -28
11 c-33 13 -44 13 -73 1z m43 -23 c-5 -15 -56 -27 -63 -15 -8 13 7 23 41 24
15 1 24 -3 22 -9z"/>
<path d="M7491 1249 l-35 -21 40 -24 c45 -27 100 -31 132 -8 75 52 -56 103
-137 53z m146 -13 c4 -4 -1 -14 -11 -22 -23 -16 -40 -19 -31 -4 3 5 0 8 -7 5
-7 -3 -33 -1 -58 4 l-45 9 45 1 c31 1 41 4 31 10 -10 6 -1 9 27 7 23 -1 45 -5
49 -10z"/>
<path d="M7913 1250 c-21 -8 -63 -64 -63 -82 0 -5 18 -8 41 -8 31 0 47 6 70
29 16 16 29 35 29 42 0 7 -6 4 -15 -7 -8 -10 -15 -15 -15 -10 0 5 -9 1 -20 -9
-12 -11 -29 -20 -40 -22 -16 -2 -15 1 8 24 14 14 38 32 52 40 l25 13 -25 -1
c-14 0 -35 -4 -47 -9z"/>
<path d="M8031 1204 c-10 -35 -6 -64 8 -64 19 0 51 49 50 76 l-1 29 -10 -32
c-14 -42 -33 -44 -24 -3 8 42 -11 37 -23 -6z"/>
<path d="M8734 1214 c-19 -15 -19 -16 1 -9 11 4 29 9 40 12 16 4 17 3 5 -6
-12 -8 -8 -11 18 -11 18 0 31 -4 28 -9 -4 -5 0 -12 6 -15 7 -3 2 -3 -11 0 -15
4 -21 2 -17 -5 4 -6 -9 -4 -29 4 -43 18 -47 2 -5 -20 30 -15 76 -20 104 -9 14
5 14 8 -1 30 -32 49 -102 68 -139 38z"/>
<path d="M8498 1195 c5 -11 6 -29 2 -40 -7 -17 -9 -15 -17 15 -10 34 -10 34
-17 10 -8 -29 8 -80 24 -80 11 0 30 41 30 64 0 7 -7 21 -16 32 -15 19 -15 19
-6 -1z"/>
<path d="M8583 1194 c9 -11 14 -24 11 -27 -4 -4 -1 -13 5 -21 17 -20 -4 -30
-23 -10 -9 8 -16 22 -16 30 0 8 -4 14 -10 14 -5 0 -10 -9 -10 -21 0 -25 52
-79 75 -79 26 0 10 79 -23 110 -15 14 -19 16 -9 4z"/>
<path d="M7685 1125 c-34 -33 -31 -45 11 -45 50 0 93 25 94 55 0 5 -7 0 -15
-12 -9 -12 -22 -20 -29 -17 -8 3 -17 0 -21 -5 -3 -6 -11 -9 -16 -5 -14 8 9 34
32 34 10 0 21 5 24 10 14 22 -56 9 -80 -15z"/>
<path d="M1080 940 c0 -153 2 -180 15 -180 12 0 15 16 15 85 0 112 21 155 76
155 8 0 23 -9 34 -20 17 -17 20 -33 20 -120 0 -82 3 -100 15 -100 12 0 15 17
15 95 0 104 -14 149 -50 160 -27 9 -76 -3 -91 -21 -21 -25 -24 -16 -21 56 3
59 1 70 -12 70 -14 0 -16 -23 -16 -180z"/>
<path d="M3869 1084 c-29 -47 -20 -51 20 -10 26 26 29 35 17 39 -10 4 -22 -6
-37 -29z"/>
<path d="M6074 1107 c-2 -7 -3 -87 -2 -177 3 -143 5 -165 19 -168 15 -3 16 5
12 60 -9 112 28 185 89 176 35 -5 48 -43 48 -145 0 -76 3 -93 15 -93 12 0 15
17 15 89 0 103 -12 144 -46 160 -38 17 -60 13 -95 -16 l-32 -27 5 77 c4 61 2
77 -9 77 -7 0 -16 -6 -19 -13z"/>
<path d="M52 938 c3 -146 5 -173 18 -176 13 -2 15 8 12 66 l-4 69 52 5 c89 9
133 60 114 135 -12 49 -56 73 -137 73 l-57 0 2 -172z m135 136 c27 -17 38 -67
23 -104 -12 -30 -44 -47 -95 -52 l-30 -3 -3 84 c-2 61 1 87 10 93 16 10 65 1
95 -18z"/>
<path d="M2807 1096 c-8 -19 15 -37 32 -26 17 10 7 40 -13 40 -7 0 -16 -6 -19
-14z"/>
<path d="M5097 1104 c-14 -15 -6 -34 14 -34 14 0 19 5 17 17 -3 18 -20 27 -31
17z"/>
<path d="M1637 1074 c-4 -4 -7 -20 -7 -36 0 -18 -5 -28 -15 -28 -8 0 -15 -4
-15 -10 0 -5 7 -10 15 -10 12 0 15 -18 15 -100 0 -85 3 -103 19 -119 12 -12
27 -17 40 -14 31 8 36 23 8 23 -33 0 -37 15 -37 121 l0 89 29 0 c17 0 33 5 36
10 4 6 -8 10 -30 10 -35 0 -36 1 -33 32 3 29 -10 46 -25 32z"/>
<path d="M3330 1050 c0 -23 -5 -33 -20 -37 -11 -3 -20 -9 -20 -14 0 -5 9 -9
20 -9 19 0 20 -7 20 -110 0 -99 2 -110 20 -120 15 -8 26 -7 43 2 l22 13 -27 3
c-16 2 -28 8 -28 13 -1 5 -1 50 -1 99 0 50 0 94 1 99 0 4 11 7 25 6 14 -2 27
1 31 6 3 5 -8 9 -25 9 -26 0 -30 4 -33 32 -4 43 -28 50 -28 8z"/>
<path d="M342 1008 c-27 -14 -38 -51 -24 -82 6 -13 32 -33 59 -45 82 -39 107
-78 64 -101 -47 -25 -121 2 -121 45 0 8 -4 15 -10 15 -17 0 -11 -46 8 -62 43
-38 143 -28 164 18 17 36 -2 66 -58 95 -67 33 -84 48 -84 74 0 24 17 35 55 35
36 0 55 -10 55 -31 0 -10 7 -19 15 -19 19 0 19 34 0 50 -21 17 -95 22 -123 8z"/>
<path d="M550 926 c0 -94 10 -144 33 -158 25 -16 81 -8 105 15 l25 22 -5 -54
c-4 -41 -11 -59 -28 -73 -44 -36 -115 -13 -103 33 4 16 2 20 -8 17 -18 -6 -24
-45 -9 -63 18 -22 76 -29 111 -14 59 24 69 56 69 222 0 120 -3 147 -14 147
-11 0 -15 -22 -18 -100 -2 -84 -6 -103 -23 -119 -28 -27 -58 -33 -81 -17 -16
12 -19 29 -22 125 -3 87 -7 111 -18 111 -11 0 -14 -20 -14 -94z"/>
<path d="M875 1011 c-77 -32 -95 -170 -30 -231 18 -17 37 -23 71 -24 39 -1 50
3 70 28 30 34 25 47 -6 16 -16 -16 -31 -20 -62 -18 -56 4 -80 37 -80 109 1 66
25 103 71 107 42 4 64 -14 59 -50 -5 -30 18 -41 28 -13 22 57 -53 103 -121 76z"/>
<path d="M1404 1010 c-12 -4 -31 -21 -44 -37 -19 -24 -21 -37 -18 -95 4 -76
21 -102 75 -117 77 -22 143 35 143 122 0 98 -76 160 -156 127z m94 -33 c12
-13 25 -43 28 -68 12 -87 -41 -155 -104 -133 -39 14 -53 49 -49 123 2 52 7 67
26 82 32 26 73 24 99 -4z"/>
<path d="M1845 1011 c-73 -30 -94 -163 -35 -226 40 -43 136 -39 161 6 12 23 1
24 -25 4 -33 -25 -91 -19 -115 11 -12 15 -21 37 -21 49 0 18 5 21 28 17 43 -6
110 16 126 41 41 63 -40 130 -119 98z m82 -23 c23 -30 23 -49 -2 -74 -18 -18
-35 -24 -70 -24 -44 0 -45 1 -45 30 0 58 86 107 117 68z"/>
<path d="M2027 1014 c-12 -12 -8 -24 8 -24 12 0 15 -19 15 -115 0 -92 3 -115
14 -115 11 0 15 22 18 99 2 80 7 103 22 120 34 38 76 17 61 -30 -8 -25 12 -24
25 1 21 39 -24 80 -70 65 -11 -3 -25 -16 -32 -28 l-12 -22 -6 25 c-6 25 -29
37 -43 24z"/>
<path d="M2295 1011 c-33 -14 -48 -38 -41 -66 4 -16 13 -25 26 -25 18 0 19 3
8 20 -19 29 1 54 45 58 44 4 77 -25 77 -67 0 -27 -3 -29 -52 -34 -80 -10 -127
-51 -114 -101 13 -51 83 -53 136 -3 27 26 30 27 30 8 0 -23 36 -52 56 -44 20
7 17 31 -3 29 -16 -1 -19 11 -23 91 -4 76 -9 96 -26 114 -23 23 -88 34 -119
20z m111 -148 c-15 -65 -115 -112 -131 -63 -9 28 19 68 53 76 15 3 32 7 37 9
6 2 18 4 29 4 15 1 17 -4 12 -26z"/>
<path d="M2513 1013 c-17 -6 -16 -23 1 -23 23 0 26 -24 26 -186 0 -134 2 -154
16 -154 13 0 15 10 11 65 -2 36 -3 65 -2 65 1 0 15 -7 31 -14 16 -8 36 -14 44
-12 72 12 95 46 95 144 0 68 -2 75 -28 98 -38 32 -69 30 -112 -7 -30 -27 -35
-28 -35 -12 0 18 -18 44 -29 42 -4 0 -12 -3 -18 -6z m164 -21 c17 -11 33 -58
33 -98 0 -82 -54 -139 -107 -115 -28 13 -37 46 -31 118 4 46 10 61 32 80 28
23 52 29 73 15z"/>
<path d="M2810 906 c0 -124 4 -146 27 -146 11 0 14 6 9 23 -3 12 -6 70 -6 130
0 88 -3 107 -15 107 -12 0 -15 -19 -15 -114z"/>
<path d="M2957 1004 c-23 -13 -28 -21 -25 -47 2 -26 8 -33 28 -35 20 -3 23 -1
13 9 -18 18 -16 56 3 63 22 8 66 7 81 -2 13 -8 33 -55 33 -78 0 -10 -12 -14
-37 -14 -51 0 -122 -36 -129 -65 -9 -37 -1 -59 28 -73 34 -16 84 2 116 43 l22
28 0 -26 c0 -14 7 -33 16 -41 13 -13 19 -14 37 -4 l22 13 -22 3 c-22 3 -23 8
-23 78 0 43 -6 90 -15 109 -22 53 -89 71 -148 39z m128 -124 c8 -13 -21 -66
-47 -84 -29 -20 -77 -21 -84 -1 -11 27 5 62 33 73 55 21 90 26 98 12z"/>
<path d="M3510 1007 c-19 -10 -25 -20 -25 -47 0 -25 5 -36 18 -38 14 -3 16 0
7 22 -12 33 10 56 54 56 38 0 61 -22 69 -66 6 -31 6 -32 -41 -36 -60 -6 -103
-27 -118 -57 -16 -31 -4 -63 29 -79 33 -16 83 3 115 43 l22 28 0 -31 c0 -36
26 -56 53 -41 20 12 13 31 -8 22 -17 -6 -17 -4 -20 87 -1 36 -5 77 -8 92 -13
49 -92 73 -147 45z m120 -141 c0 -13 -13 -38 -30 -56 -23 -25 -36 -31 -62 -28
-29 3 -33 7 -36 34 -4 36 10 50 64 63 59 14 64 13 64 -13z"/>
<path d="M3737 1013 c-12 -11 -8 -23 8 -23 12 0 15 -19 15 -115 0 -96 3 -115
15 -115 12 0 15 15 15 79 0 44 4 91 10 105 13 34 54 60 84 52 32 -8 46 -55 46
-158 0 -63 3 -78 15 -78 12 0 15 16 14 83 0 45 -5 98 -12 117 -22 62 -91 78
-135 30 -19 -20 -19 -20 -30 5 -11 24 -31 32 -45 18z"/>
<path d="M4079 1005 c-56 -30 -77 -140 -40 -201 45 -73 181 -60 181 17 0 6 -9
0 -21 -15 -24 -30 -81 -36 -116 -11 -44 31 -39 170 7 195 36 19 79 12 92 -15
8 -19 8 -28 -2 -40 -10 -12 -10 -15 2 -15 18 0 38 20 38 37 0 8 -11 25 -25 38
-28 29 -75 32 -116 10z"/>
<path d="M4334 1006 c-61 -27 -82 -145 -38 -211 19 -29 75 -49 112 -40 32 8
62 33 62 52 0 9 -6 7 -20 -7 -40 -40 -136 -16 -141 35 -1 8 -2 20 -3 26 -1 6
23 12 56 13 74 4 108 25 108 69 0 38 -7 50 -37 66 -28 14 -60 14 -99 -3z m94
-18 c7 -7 12 -24 12 -39 0 -38 -33 -59 -93 -59 l-49 0 7 33 c10 46 42 77 80
77 17 0 36 -5 43 -12z"/>
<path d="M4527 1014 c-12 -12 -8 -24 7 -24 20 0 25 -22 25 -120 0 -113 -1
-110 14 -110 9 0 12 25 12 89 0 75 3 94 21 118 27 37 67 42 88 11 12 -17 16
-47 16 -120 0 -80 3 -98 15 -98 12 0 15 16 15 85 0 115 21 155 80 155 30 0 43
-38 48 -142 4 -74 8 -98 18 -98 11 0 13 20 10 99 -3 55 -9 109 -16 120 -26 49
-94 50 -129 3 -15 -20 -20 -23 -21 -10 0 21 -37 48 -67 48 -12 0 -34 -11 -50
-24 l-27 -24 -11 22 c-11 22 -36 32 -48 20z"/>
<path d="M5099 1016 c-2 -2 -3 -61 -1 -130 3 -102 6 -126 18 -126 11 0 14 21
14 114 0 63 -3 121 -6 130 -6 15 -16 20 -25 12z"/>
<path d="M5307 1014 c-12 -12 -8 -24 8 -24 12 0 15 -22 17 -112 2 -91 6 -113
18 -116 12 -2 15 13 15 91 0 73 4 99 18 121 26 39 60 33 67 -13 4 -31 6 -32
19 -18 20 24 6 65 -24 73 -27 7 -75 -18 -75 -39 0 -6 -6 -1 -13 13 -13 25 -37
37 -50 24z"/>
<path d="M5540 926 c0 -116 15 -161 56 -169 33 -6 74 7 91 29 10 14 13 13 23
-5 6 -12 20 -21 30 -21 23 0 27 15 5 23 -11 5 -15 31 -17 118 -2 74 -7 114
-15 116 -8 3 -12 -26 -15 -96 -3 -89 -6 -102 -27 -125 -28 -29 -48 -32 -77
-12 -16 12 -20 30 -24 122 -3 73 -9 109 -17 112 -10 3 -13 -20 -13 -92z"/>
<path d="M5875 1011 c-77 -34 -95 -170 -30 -231 38 -35 110 -33 142 4 29 34
24 47 -6 17 -14 -14 -34 -21 -60 -21 -56 0 -81 34 -81 110 0 73 25 110 75 110
39 0 59 -21 52 -55 -3 -20 -1 -25 12 -23 20 4 26 48 9 71 -15 21 -82 31 -113
18z"/>
<path d="M6405 1011 c-73 -30 -94 -163 -35 -226 40 -43 136 -39 161 6 12 23 1
24 -25 4 -33 -25 -91 -19 -115 11 -12 15 -21 37 -21 49 0 18 5 21 28 17 43 -6
110 16 126 41 41 63 -40 130 -119 98z m81 -19 c6 -4 13 -18 17 -31 9 -38 -31
-71 -88 -71 -44 0 -45 1 -45 30 0 56 73 101 116 72z"/>
<path d="M6587 1013 c-12 -11 -8 -21 13 -26 18 -5 20 -14 20 -116 0 -89 3
-111 14 -111 11 0 15 22 18 101 3 92 5 103 27 120 25 21 48 24 71 9 11 -7 16
-36 20 -116 3 -73 9 -109 18 -112 9 -3 12 18 12 81 0 71 4 89 23 118 26 38 53
47 82 25 17 -12 20 -29 23 -120 3 -82 7 -106 18 -106 11 0 14 20 14 90 0 107
-16 156 -55 166 -29 7 -81 -11 -94 -33 -7 -13 -13 -11 -34 11 -33 33 -67 33
-106 0 -29 -24 -31 -24 -31 -6 0 25 -37 42 -53 25z"/>
</g>
</svg>
