<?xml version="1.0" standalone="no"?>
<!DOCTYPE svg PUBLIC "-//W3C//DTD SVG 20010904//EN"
 "http://www.w3.org/TR/2001/REC-SVG-20010904/DTD/svg10.dtd">
<svg version="1.0" xmlns="http://www.w3.org/2000/svg"
 width="1496.000000pt" height="526.000000pt" viewBox="0 0 1496.000000 526.000000"
 preserveAspectRatio="xMidYMid meet">

<g transform="translate(0.000000,526.000000) scale(0.100000,-0.100000)"
stroke="none">
<path d="M12521 4579 c-19 -56 -14 -104 16 -139 l27 -32 18 22 c33 41 18 119
-30 163 -19 18 -20 17 -31 -14z m47 -65 c4 2 7 -17 7 -42 0 -26 -4 -46 -10
-45 -15 3 -40 43 -26 43 7 0 8 8 2 23 -5 13 -6 36 -3 53 l6 29 8 -33 c5 -18
12 -31 16 -28z"/>
<path d="M12696 4572 c-21 -42 -20 -75 4 -103 20 -24 20 -24 35 -5 21 27 19
89 -4 117 l-18 23 -17 -32z m33 -48 c4 3 5 -11 3 -30 -5 -39 -16 -44 -33 -13
-9 17 -8 20 2 14 9 -6 11 -2 6 14 -3 13 -3 30 1 39 6 14 7 13 10 -6 2 -12 7
-20 11 -18z"/>
<path d="M12871 4557 c-20 -25 -24 -73 -8 -103 l15 -29 -3 40 c-1 22 1 49 5
60 6 16 9 10 15 -27 4 -26 4 -53 0 -60 -3 -7 1 -4 9 6 19 23 21 65 4 101 -13
28 -21 31 -37 12z"/>
<path d="M13010 4524 c-34 -54 -41 -100 -24 -145 19 -47 36 -54 62 -26 29 32
42 62 42 94 0 33 -35 113 -49 113 -5 0 -19 -16 -31 -36z m41 -78 c6 3 7 -5 3
-23 -4 -15 -7 -36 -7 -45 1 -9 -5 -22 -13 -29 -11 -9 -17 -5 -30 26 -8 20 -13
40 -10 43 3 3 6 0 6 -6 0 -7 4 -12 8 -12 4 0 6 16 4 36 -3 26 -1 35 7 30 7 -5
12 3 13 21 1 21 2 19 5 -10 3 -21 9 -35 14 -31z"/>
<path d="M12246 4518 c-23 -32 -20 -100 5 -132 11 -14 25 -26 32 -26 6 0 3 6
-7 13 -19 14 -27 68 -15 107 l7 25 1 -28 c1 -16 5 -26 11 -22 9 6 15 -30 11
-64 -2 -7 2 -10 8 -6 18 11 12 88 -9 123 -11 17 -22 32 -24 32 -3 0 -12 -10
-20 -22z"/>
<path d="M13183 4518 c-29 -33 -44 -65 -45 -98 -1 -30 20 -90 31 -90 12 1 49
35 60 57 21 41 11 153 -13 153 -7 0 -22 -10 -33 -22z m20 -55 c-5 -27 -3 -34
6 -28 10 6 11 3 1 -15 -6 -12 -9 -28 -6 -35 2 -7 -4 -21 -14 -30 -19 -17 -20
-16 -30 9 -5 15 -10 35 -10 44 0 15 2 15 10 2 7 -11 10 -5 10 23 0 21 4 36 9
32 5 -3 12 4 16 15 10 32 14 23 8 -17z"/>
<path d="M12401 4476 c-27 -43 -27 -87 0 -117 11 -13 17 -18 13 -10 -10 19
-11 91 -1 91 4 0 7 -5 7 -11 0 -5 4 -8 9 -5 5 3 7 -11 6 -32 -3 -34 -3 -36 11
-18 8 11 14 30 14 43 0 24 -25 93 -34 93 -2 0 -14 -15 -25 -34z"/>
<path d="M13373 4478 c-55 -59 -68 -129 -33 -186 17 -28 23 -31 40 -22 51 27
66 118 32 193 l-17 39 -22 -24z m12 -65 c-6 -41 -5 -45 8 -34 14 11 15 8 6
-23 -6 -20 -8 -40 -5 -45 3 -4 -3 -16 -13 -25 -17 -15 -18 -15 -29 9 -15 33
-15 48 0 39 8 -5 9 5 5 36 -3 26 -2 38 3 30 6 -10 10 -3 15 23 10 54 19 45 10
-10z"/>
<path d="M12110 4466 c-19 -50 -12 -112 15 -145 31 -36 64 -49 76 -30 13 22
11 87 -5 117 -8 15 -28 40 -45 56 l-30 29 -11 -27z m60 -76 c7 11 10 7 10 -17
0 -18 5 -33 10 -33 14 0 13 -37 -1 -46 -6 -3 -23 6 -38 20 -18 19 -21 25 -8
20 16 -6 15 -2 -5 32 -12 21 -17 34 -10 30 10 -6 11 0 7 21 -5 25 -4 24 10 -7
13 -28 18 -32 25 -20z"/>
<path d="M12781 4403 c-13 -69 -2 -119 32 -151 l23 -22 25 26 c37 39 34 110
-7 161 -46 57 -59 54 -73 -14z m48 -30 c1 -25 16 -31 24 -10 2 6 4 -15 3 -48
-2 -71 -19 -79 -50 -25 -17 29 -17 33 -3 21 19 -15 22 -5 7 34 -7 18 -7 24 1
20 7 -5 8 6 5 32 -5 28 -4 33 3 18 5 -11 10 -30 10 -42z"/>
<path d="M11965 4406 c-12 -62 6 -105 55 -131 8 -4 2 7 -15 25 -16 18 -24 30
-17 26 14 -9 15 -1 3 23 -6 10 -6 23 0 32 7 11 9 11 9 -3 0 -10 4 -18 9 -18
10 0 24 -38 22 -60 -2 -13 -1 -13 8 0 6 8 11 24 11 35 0 27 -34 81 -59 94 -18
10 -21 8 -26 -23z"/>
<path d="M13502 4410 c-18 -11 -40 -36 -48 -55 -17 -41 -9 -85 15 -84 10 0 11
2 4 6 -8 2 -13 21 -12 41 0 29 2 33 8 17 7 -17 9 -16 16 13 4 18 9 31 13 28 3
-3 14 2 25 11 20 18 20 18 2 -9 -12 -20 -14 -28 -5 -28 9 0 7 -7 -5 -20 -27
-30 -29 -53 -3 -39 24 13 48 67 48 109 0 35 -12 38 -58 10z"/>
<path d="M12071 4400 c0 -8 8 -56 18 -105 27 -132 88 -243 203 -370 47 -52 56
-69 67 -123 7 -34 25 -107 40 -162 16 -55 25 -100 20 -100 -27 0 -176 119
-278 223 -167 170 -236 256 -298 372 -46 85 -41 57 7 -40 104 -210 370 -500
542 -590 l57 -29 49 -141 c27 -77 61 -171 75 -208 l27 -68 -33 19 c-17 11 -58
36 -91 55 -89 54 -210 152 -289 236 -82 88 -79 82 27 -51 91 -114 168 -186
286 -267 116 -81 139 -106 161 -188 38 -137 21 -149 -75 -55 -72 71 -113 100
-290 212 -326 203 -457 362 -551 671 -14 46 -23 67 -20 45 13 -79 57 -214 104
-311 54 -113 136 -221 244 -321 l72 -66 -51 5 c-149 16 -410 151 -563 292
l-66 60 45 -54 c95 -116 248 -227 402 -294 l73 -32 -61 0 c-34 0 -65 -3 -69
-7 -17 -16 51 -101 102 -127 30 -15 95 -14 117 2 18 13 18 15 1 50 -9 20 -31
46 -48 57 -23 15 -26 19 -10 15 38 -11 137 -25 173 -25 27 0 58 -16 132 -65
113 -77 156 -121 136 -140 -7 -7 -62 -20 -123 -30 -191 -32 -172 -34 -243 29
-34 30 -82 67 -107 81 -42 25 -199 95 -213 95 -3 0 30 -22 74 -49 72 -45 224
-170 232 -192 6 -15 -50 -23 -153 -23 -84 0 -111 4 -170 27 -38 14 -71 25 -72
23 -5 -5 138 -63 202 -81 48 -14 83 -17 177 -12 l117 5 -49 -42 c-73 -63 -140
-96 -238 -117 l-87 -19 101 3 c82 3 110 8 157 30 61 28 167 105 190 138 12 16
32 22 99 29 132 13 184 -5 241 -86 56 -79 67 -209 42 -472 -20 -211 -38 -243
-155 -282 -37 -12 -81 -36 -102 -56 -21 -19 -46 -34 -55 -34 -10 0 -42 -16
-71 -36 -51 -36 -54 -37 -95 -24 -54 16 -102 15 -152 -3 l-40 -15 61 5 c48 4
68 1 102 -16 54 -27 88 -26 137 4 22 13 43 25 48 25 17 0 5 -38 -20 -62 -42
-39 -85 -57 -171 -72 -43 -8 -94 -22 -113 -32 -24 -13 -66 -20 -141 -24 -101
-5 -109 -7 -138 -35 -16 -16 -30 -32 -30 -36 0 -4 14 6 30 23 31 30 31 30 125
26 52 -2 98 -7 102 -12 4 -4 -6 -17 -22 -29 -68 -50 -78 -67 -71 -130 3 -35 1
-67 -5 -80 -11 -21 -10 -21 6 -5 11 10 19 36 21 70 3 45 9 57 35 78 17 14 57
51 89 82 59 58 63 59 170 73 54 7 136 50 162 85 10 14 26 47 36 75 22 62 59
88 147 105 80 15 95 10 95 -31 0 -48 -29 -86 -85 -113 -93 -44 -133 -118 -116
-212 6 -32 6 -53 -1 -61 -14 -17 -61 -16 -105 2 -29 12 -43 13 -74 3 -34 -10
-42 -9 -60 8 -22 20 -75 22 -119 6 -21 -9 -18 -10 22 -9 41 2 51 -2 82 -32 31
-30 38 -33 78 -27 l43 7 -27 -25 c-24 -22 -34 -24 -83 -19 -48 5 -60 3 -93
-20 -20 -15 -46 -41 -55 -59 -18 -32 -18 -32 0 -13 57 63 109 79 163 52 20
-10 24 -19 22 -44 -2 -17 4 -48 12 -68 20 -47 20 -78 0 -116 -24 -47 -10 -45
26 3 30 41 31 46 26 113 -5 59 -3 75 14 103 22 35 44 47 104 57 23 4 50 18 67
35 27 26 29 33 26 103 -2 62 1 79 17 96 27 29 42 26 55 -11 7 -18 23 -49 37
-70 24 -34 25 -38 10 -67 -20 -38 -20 -55 0 -108 23 -59 7 -92 -73 -155 -60
-47 -93 -90 -93 -120 0 -17 68 -157 69 -141 1 6 -8 32 -19 58 -25 57 -25 97
-2 123 9 11 52 43 95 72 69 47 80 52 102 42 31 -14 51 -54 59 -122 8 -61 29
-100 77 -145 34 -31 33 -28 -13 44 -24 38 -28 55 -28 116 0 59 -4 78 -22 104
-21 29 -50 71 -100 144 -19 27 -19 28 1 61 27 42 26 68 -1 133 -19 45 -20 57
-10 91 11 37 52 92 69 92 22 -1 34 -22 43 -78 9 -56 8 -67 -15 -122 -35 -82
-33 -121 6 -154 17 -14 49 -29 72 -33 26 -4 52 -17 70 -35 26 -25 28 -26 22
-5 -10 31 -26 46 -82 76 -61 33 -66 60 -23 130 51 83 62 84 131 12 32 -34 66
-61 77 -61 33 0 47 -26 34 -64 -15 -41 -15 -108 -1 -156 10 -31 8 -42 -10 -78
-21 -42 -27 -118 -12 -157 6 -14 9 -4 13 38 4 44 12 68 38 103 27 39 32 53 29
92 -4 68 -1 164 6 170 10 11 22 -18 29 -68 9 -66 37 -92 136 -125 94 -31 162
-88 175 -144 4 -18 9 -30 12 -27 12 12 -29 95 -64 131 -20 20 -66 51 -102 67
-73 32 -101 54 -101 76 0 11 7 13 38 6 20 -5 78 -8 128 -6 82 2 94 1 130 -23
l39 -26 -42 39 c-45 41 -76 52 -152 52 -27 0 -67 10 -97 24 -42 19 -54 31 -64
60 -13 39 -45 66 -104 87 -26 9 -52 31 -78 64 -22 28 -65 68 -96 90 -47 34
-57 46 -57 70 0 51 29 43 104 -28 37 -35 89 -74 116 -87 47 -23 48 -23 101 -6
30 9 60 13 67 9 24 -16 137 -140 137 -151 0 -18 41 -39 90 -47 59 -9 87 -28
95 -63 6 -30 43 -71 82 -91 36 -19 35 -13 -6 25 -31 27 -41 45 -47 79 -8 55
-33 79 -107 100 -32 9 -56 22 -55 27 5 15 93 37 146 38 51 0 98 -18 161 -63
72 -52 80 -52 26 -3 -68 62 -156 106 -213 106 -44 0 -45 0 -27 20 10 11 31 20
47 20 29 0 78 38 78 60 0 6 10 15 23 20 18 7 19 9 4 9 -11 1 -32 -13 -48 -30
-23 -25 -34 -30 -57 -24 -22 4 -40 -2 -88 -35 -72 -49 -114 -53 -147 -13 -71
87 -85 93 -157 72 -54 -16 -78 -7 -145 54 -53 48 -58 56 -46 71 17 20 58 21
106 0 29 -12 57 -14 131 -8 69 5 98 3 109 -6 8 -7 15 -10 15 -6 0 3 -15 15
-32 26 -24 14 -51 20 -98 20 -45 0 -76 6 -100 19 -20 10 -61 24 -93 30 -102
22 -121 76 -115 336 3 158 5 174 29 225 14 31 40 72 57 91 40 46 132 95 201
107 53 10 56 9 120 -31 58 -35 261 -130 261 -122 0 2 -24 20 -52 41 -29 21
-77 56 -107 78 l-54 41 29 6 c16 4 61 7 99 8 85 2 144 14 207 43 56 25 58 36
3 12 -50 -20 -157 -20 -310 1 -178 25 -338 8 -474 -52 -30 -13 -56 -21 -59
-18 -11 10 30 121 68 185 42 72 82 114 122 129 38 14 197 29 388 36 139 4 161
3 142 -8 -12 -7 -29 -23 -38 -36 -14 -20 -15 -25 -2 -37 25 -25 89 -21 141 9
26 15 47 32 47 37 0 13 -54 40 -82 41 -13 1 16 7 65 15 96 15 201 43 271 75
55 24 61 35 9 14 -121 -46 -236 -56 -555 -48 -251 6 -265 7 -245 23 44 33 364
230 391 240 15 5 57 10 94 10 81 0 180 20 259 52 l58 24 -23 -46 c-12 -24 -21
-54 -20 -65 3 -18 11 -20 65 -20 53 0 66 4 100 31 21 17 53 55 71 84 28 48 30
55 16 63 -18 10 -105 4 -139 -9 -14 -6 -6 9 25 47 l45 54 -47 -42 c-25 -23
-64 -51 -87 -62 -59 -30 -196 -61 -271 -61 l-65 0 62 58 c75 69 125 135 164
216 29 62 27 60 -25 -21 -42 -65 -116 -135 -199 -191 -81 -54 -407 -236 -412
-230 -6 6 50 196 91 313 45 125 145 325 240 478 40 64 71 117 69 117 -15 0
-283 -398 -330 -490 l-28 -55 -11 30 c-5 17 -10 115 -10 218 l0 188 -18 -78
c-26 -116 -33 -272 -15 -368 l15 -80 -33 -110 c-19 -60 -39 -135 -45 -165 -11
-53 -13 -56 -78 -98 -37 -23 -82 -54 -99 -68 l-33 -27 5 44 c2 24 7 101 10
171 5 112 14 189 31 253 3 14 0 12 -10 -6 -25 -43 -65 -193 -86 -323 -32 -194
-41 -231 -64 -272 -23 -41 -43 -49 -57 -24 -4 8 -19 57 -33 108 -39 141 -35
241 21 477 33 141 47 168 147 279 142 158 183 221 269 411 58 128 86 207 40
115 l-27 -55 -5 57 c-4 31 -9 60 -14 64 -9 9 -55 -33 -73 -68 -17 -33 -18 -59
-2 -93 15 -33 24 -32 61 8 28 30 27 25 -17 -58 -72 -133 -135 -220 -227 -310
-45 -44 -79 -73 -77 -65 53 155 98 409 97 538 l-2 97 -8 -92 c-10 -114 -34
-208 -105 -415 -52 -149 -75 -207 -62 -151 6 22 -9 113 -18 113 -19 0 -44 -25
-57 -59 -16 -39 -13 -67 10 -106 11 -20 12 -19 39 5 21 19 26 21 21 7 -26 -71
-71 -229 -90 -316 l-24 -104 -45 109 c-25 60 -71 175 -103 255 l-57 147 37 88
c87 211 130 374 139 534 3 47 3 74 0 60 -32 -167 -85 -337 -152 -487 -25 -57
-48 -103 -53 -103 -16 0 -89 343 -89 423 0 24 -4 36 -10 32 -6 -4 -8 -21 -6
-38 3 -18 8 -81 11 -141 l7 -109 -59 69 c-106 123 -144 189 -179 304 -12 41
-23 68 -23 60z m1093 -206 c-5 -20 -4 -25 5 -19 8 5 7 -3 -3 -23 -8 -16 -13
-32 -10 -34 2 -3 -2 -11 -11 -18 -16 -13 -18 -11 -28 37 -3 15 -1 20 9 16 9
-3 14 2 14 16 0 18 17 49 28 51 1 0 -1 -12 -4 -26z m-421 -523 c4 -58 -14 -87
-32 -52 -15 27 -15 52 0 31 8 -11 9 -5 4 23 -4 27 -3 37 4 32 6 -3 11 1 11 11
0 38 10 4 13 -45z m74 -13 c-3 -8 -6 -5 -6 6 -1 11 2 17 5 13 3 -3 4 -12 1
-19z m-26 -135 c-11 -54 -32 -147 -46 -208 -16 -70 -28 -155 -32 -236 -6 -119
-4 -134 27 -271 l34 -146 23 50 c13 28 36 70 53 94 46 69 53 84 72 169 l18 80
-4 -67 -4 -67 69 52 c62 48 269 165 269 153 0 -2 -52 -37 -115 -76 -63 -39
-115 -73 -115 -75 0 -1 69 0 153 2 83 3 150 3 147 0 -3 -3 -57 -11 -120 -17
-156 -15 -212 -32 -265 -81 -58 -54 -104 -147 -155 -316 -24 -79 -47 -143 -52
-143 -4 0 -8 29 -8 64 0 35 -4 87 -10 116 -5 29 -22 150 -36 269 -29 243 -27
304 21 461 14 47 40 136 57 198 18 63 34 109 36 103 2 -6 -6 -54 -17 -108z
m1294 -164 l-7 -20 41 20 c63 33 62 25 -4 -19 -57 -38 -59 -40 -30 -41 28 0
28 -1 -14 -17 -23 -9 -42 -21 -41 -26 3 -13 -21 -26 -47 -26 -29 0 -29 19 -3
70 24 47 33 51 24 13 -5 -26 -2 -24 38 18 50 55 51 55 43 28z m-1547 -284 c74
-38 94 -58 107 -105 7 -25 7 -25 -9 -4 -8 12 -58 52 -110 89 -53 37 -101 74
-108 83 -9 11 -3 9 17 -4 17 -12 63 -38 103 -59z m-185 -112 c128 -82 282
-241 328 -338 25 -51 30 -81 39 -195 6 -74 15 -171 20 -215 10 -88 64 -297 86
-332 20 -32 85 -63 168 -78 l71 -14 -82 2 c-46 1 -83 0 -83 -2 0 -2 27 -34 61
-72 61 -69 107 -104 157 -119 27 -8 27 -8 2 -9 -47 -1 -105 36 -220 142 -111
101 -118 110 -165 208 l-49 103 -1 232 0 231 -40 78 c-56 110 -71 119 -208
125 l-112 5 76 14 c42 7 94 12 117 10 l40 -4 -21 30 c-37 51 -149 158 -214
204 -35 24 -63 46 -63 48 0 5 4 3 93 -54z m-373 -5 c0 5 -6 14 -12 22 -7 8 4
2 25 -14 20 -15 41 -25 46 -21 9 5 41 -31 41 -47 0 -5 -24 -8 -52 -7 -40 1
-47 3 -28 8 23 7 21 9 -20 20 -62 17 -68 19 -45 20 16 1 14 5 -12 22 -45 29
-41 32 12 9 25 -11 45 -16 45 -12z m1600 -43 c-16 -19 -7 -19 32 1 16 9 27 11
24 6 -3 -6 2 -13 11 -15 13 -3 12 -5 -5 -6 -13 0 -21 -5 -18 -10 3 -4 -13 -14
-36 -20 -55 -17 -70 -1 -33 33 31 29 45 35 25 11z m-1263 -211 c-3 -3 -12 -4
-19 -1 -8 3 -5 6 6 6 11 1 17 -2 13 -5z m962 -69 c-274 -33 -420 -103 -454
-217 -8 -27 -17 -115 -21 -195 -4 -80 -10 -139 -15 -131 -16 29 -32 172 -26
237 11 135 71 218 186 262 91 34 227 57 336 57 l100 0 -106 -13z m-488 -914
l32 -92 58 -29 c40 -21 67 -43 88 -74 17 -24 47 -54 66 -66 46 -28 44 -32 -5
-13 -23 9 -54 31 -70 50 -33 37 -87 73 -111 73 -18 0 -29 -19 -29 -53 -1 -12
-17 -51 -36 -87 -36 -66 -36 -64 -3 27 11 29 19 59 19 68 0 28 -50 160 -68
177 -17 17 -20 15 -62 -42 -43 -57 -59 -68 -141 -103 -42 -18 -68 -65 -70
-124 l-1 -38 -8 39 c-15 78 23 145 95 169 32 11 49 27 83 77 36 55 42 70 42
117 0 64 -16 75 -54 40 -19 -17 -48 -29 -94 -37 -37 -6 -87 -22 -112 -36 l-45
-25 34 30 c34 30 55 39 138 61 45 11 123 87 123 120 0 41 17 25 56 -53 23 -46
57 -125 75 -176z"/>
<path d="M12486 4360 c-38 -82 -34 -132 17 -187 23 -26 38 -19 63 28 26 51 10
130 -39 194 -15 19 -17 18 -41 -35z m40 -70 c4 -12 6 -12 14 0 5 8 7 -11 5
-49 -2 -34 -5 -65 -8 -68 -9 -9 -26 7 -44 40 -15 31 -15 31 2 17 19 -16 19
-14 -1 65 -4 16 -3 17 5 5 8 -12 11 -6 12 25 2 33 3 35 6 10 2 -16 6 -37 9
-45z"/>
<path d="M12682 4305 c-51 -57 -52 -135 -3 -179 16 -15 19 -14 39 7 29 31 44
75 37 111 -11 53 -26 96 -35 96 -4 0 -22 -16 -38 -35z m39 -74 c10 14 9 4 -7
-52 -4 -15 -3 -19 6 -14 9 6 9 3 1 -13 -18 -34 -29 -34 -46 -3 -17 34 -21 66
-5 41 7 -11 10 -8 10 16 0 16 6 42 13 57 l12 27 3 -37 c3 -28 6 -33 13 -22z"/>
<path d="M13052 4317 c-14 -15 -22 -35 -21 -58 l1 -34 9 31 c10 37 37 64 34
36 -1 -9 -7 -27 -13 -39 -16 -30 2 -30 22 -1 20 28 21 88 3 88 -8 0 -23 -10
-35 -23z"/>
<path d="M13652 4302 c-36 -34 -48 -72 -32 -101 14 -27 22 -26 54 5 21 22 26
36 26 75 0 27 -4 49 -9 49 -5 0 -23 -13 -39 -28z m22 -34 c-2 -33 -22 -78 -34
-78 -25 0 5 86 35 100 1 0 0 -10 -1 -22z"/>
<path d="M11846 4294 c-12 -32 -5 -99 14 -139 20 -42 57 -71 100 -77 24 -3 25
0 28 54 3 55 1 59 -37 100 -21 24 -53 51 -69 60 -27 16 -31 16 -36 2z m84
-100 c4 13 9 9 19 -19 7 -19 17 -33 22 -30 5 4 9 -8 9 -24 0 -36 -12 -39 -57
-11 -39 23 -42 30 -10 23 19 -5 18 -1 -12 31 -19 20 -30 36 -23 36 8 0 9 7 2
26 -17 43 -11 41 17 -5 21 -36 28 -41 33 -27z"/>
<path d="M12220 4271 c-5 -11 -10 -40 -10 -65 0 -37 6 -52 30 -78 29 -32 31
-32 45 -14 24 31 19 96 -10 139 -29 42 -40 45 -55 18z m45 -59 c11 3 25 -69
18 -89 -6 -16 -31 -5 -44 19 -8 16 -8 19 1 13 9 -5 10 -1 5 16 -8 27 -8 25 -5
59 l2 25 6 -23 c4 -13 11 -22 17 -20z"/>
<path d="M11705 4250 c-11 -18 15 -80 38 -91 21 -10 21 -10 3 5 -11 9 -16 16
-11 16 5 0 4 5 -3 12 -7 7 -12 18 -12 26 0 11 2 11 13 0 7 -7 18 -22 25 -33
10 -18 11 -18 12 -2 0 39 -50 91 -65 67z"/>
<path d="M13524 4232 c-40 -51 -58 -96 -58 -147 0 -50 25 -115 44 -115 6 0 27
15 47 33 31 29 37 41 41 89 3 45 -1 67 -21 112 -14 31 -27 56 -29 55 -2 0 -12
-12 -24 -27z m20 -84 c-6 -59 -5 -62 9 -43 20 25 21 18 3 -33 -9 -25 -11 -42
-5 -44 6 -2 -1 -14 -15 -27 l-25 -24 -9 24 c-5 13 -12 38 -16 54 -6 29 -6 29
10 10 15 -19 16 -17 12 37 -4 46 -2 54 7 41 10 -14 13 -10 19 25 10 64 16 50
10 -20z"/>
<path d="M12392 4203 c-28 -55 -35 -96 -23 -139 11 -40 56 -94 78 -94 21 0 53
61 53 102 0 38 -56 158 -77 165 -7 3 -21 -13 -31 -34z m44 -93 c6 -23 7 -24
14 -5 6 15 9 7 9 -28 1 -33 5 -46 12 -41 8 4 9 -1 4 -17 -13 -44 -25 -46 -56
-9 -31 36 -39 61 -14 40 20 -16 20 -1 0 47 -8 20 -13 38 -10 41 3 3 5 0 5 -6
0 -7 5 -12 11 -12 5 0 7 5 4 10 -3 6 -3 20 1 33 8 22 8 22 11 -3 2 -14 6 -36
9 -50z"/>
<path d="M13276 4207 c-16 -20 -25 -46 -25 -63 1 -24 3 -25 6 -6 2 12 9 20 14
17 5 -4 9 1 9 10 0 9 6 23 14 31 13 12 14 10 11 -13 -2 -16 -4 -31 -4 -35 -1
-5 -10 -17 -21 -28 -11 -11 -15 -20 -10 -20 6 0 22 11 35 25 19 18 25 35 25
70 0 56 -18 60 -54 12z"/>
<path d="M13017 4171 c-49 -54 -64 -106 -47 -166 15 -55 39 -59 80 -15 45 48
50 110 16 190 l-13 31 -36 -40z m28 -28 c-2 -10 -6 -34 -10 -53 -5 -32 -4 -33
9 -15 18 23 21 13 5 -16 -5 -11 -11 -32 -12 -46 -2 -24 -30 -53 -41 -43 -2 3
-7 23 -11 45 -4 27 -3 35 3 26 14 -19 26 21 18 57 -5 20 -4 23 3 12 10 -15 10
-16 26 35 6 21 14 19 10 -2z"/>
<path d="M12786 4157 c-37 -48 -56 -100 -56 -151 0 -52 27 -116 48 -116 28 0
90 76 97 118 9 57 -30 182 -57 182 -4 0 -18 -15 -32 -33z m30 -74 l-7 -66 21
24 20 24 -20 -53 c-23 -61 -24 -66 -9 -56 8 4 8 0 0 -15 -6 -11 -20 -25 -30
-31 -16 -8 -21 -5 -30 22 -6 17 -11 40 -11 52 1 21 1 21 16 1 15 -19 16 -16
11 43 -4 53 -3 61 7 46 12 -15 14 -12 20 29 11 71 20 56 12 -20z"/>
<path d="M13774 4176 c-41 -18 -64 -52 -64 -94 0 -84 98 -25 115 71 8 42 1 45
-51 23z m16 -36 c-15 -21 -17 -30 -8 -31 11 0 11 -2 0 -6 -7 -3 -17 -16 -22
-29 -14 -36 -40 -31 -40 9 0 21 3 27 9 19 6 -10 11 -5 21 17 7 17 16 29 20 26
4 -3 13 2 20 10 22 27 22 16 0 -15z"/>
<path d="M12035 4098 c-39 -132 5 -249 104 -278 29 -8 33 -7 43 18 20 52 21
110 3 160 -17 43 -107 152 -126 152 -5 0 -15 -23 -24 -52z m91 -108 c7 22 9
18 19 -30 7 -36 16 -54 24 -52 10 2 12 -6 6 -35 -4 -21 -9 -40 -11 -42 -7 -8
-83 49 -95 71 -12 22 -12 22 15 5 33 -22 33 -16 -4 49 -21 37 -25 51 -14 47
13 -5 14 3 10 48 l-6 54 24 -70 c22 -62 25 -67 32 -45z"/>
<path d="M11680 4094 c0 -107 58 -194 142 -212 24 -5 46 -7 51 -5 11 6 9 88
-4 120 -5 15 -22 41 -37 56 -28 30 -121 87 -141 87 -6 0 -11 -19 -11 -46z
m108 -68 c3 22 6 20 30 -25 14 -29 29 -46 32 -40 9 14 20 -13 20 -48 0 -22 -3
-24 -27 -18 -16 3 -41 15 -58 26 l-30 21 30 -5 c29 -5 28 -4 -20 39 -27 24
-42 41 -32 38 18 -6 18 -4 -2 34 -31 60 -26 61 17 4 35 -48 37 -50 40 -26z"/>
<path d="M13357 4113 c-57 -60 -71 -145 -37 -220 21 -47 24 -48 58 -29 38 21
62 66 62 118 0 44 -36 158 -50 158 -3 0 -18 -12 -33 -27z m36 -119 c15 36 17
9 3 -37 -9 -32 -10 -47 -3 -47 6 0 0 -11 -13 -25 -30 -32 -36 -31 -44 3 -3 15
-8 38 -12 52 -5 25 -5 25 11 5 17 -19 17 -18 11 35 -3 34 -2 50 3 41 7 -11 12
-4 18 25 l8 39 5 -55 c4 -39 7 -49 13 -36z"/>
<path d="M11573 4017 c4 -41 10 -56 36 -79 31 -28 51 -30 51 -5 0 9 -2 9 -8 0
-5 -8 -14 -6 -32 7 -14 11 -19 20 -11 20 11 0 11 3 1 16 -8 8 -15 27 -16 42
l-3 27 15 -28 c8 -15 19 -25 24 -22 6 4 10 -3 10 -13 0 -11 7 -23 16 -26 13
-5 15 -1 9 21 -8 33 -49 79 -77 86 -19 5 -20 2 -15 -46z"/>
<path d="M13848 4035 c-52 -38 -78 -79 -78 -123 0 -45 18 -53 67 -30 61 29 99
115 77 172 -8 22 -12 21 -66 -19z m22 -49 c-20 -33 -20 -35 -3 -30 13 5 10 -1
-10 -20 -15 -15 -25 -31 -23 -35 3 -5 -5 -13 -19 -19 -27 -13 -34 0 -26 53 3
26 5 27 11 10 7 -17 11 -14 28 23 11 24 22 38 24 30 3 -9 9 -7 18 9 8 12 16
20 18 18 2 -2 -6 -20 -18 -39z"/>
<path d="M12616 3975 c-43 -56 -59 -103 -54 -163 5 -52 27 -94 60 -116 37 -23
90 65 90 145 -1 47 -45 169 -62 169 -4 0 -20 -16 -34 -35z m52 -120 l14 20 -7
-20 c-4 -11 -8 -44 -10 -73 -3 -52 -19 -87 -36 -76 -12 7 -34 51 -43 84 l-7
25 21 -25 21 -25 -5 30 c-19 117 -19 112 -2 90 15 -20 15 -20 16 5 0 14 4 36
8 50 5 19 8 9 12 -40 4 -58 6 -63 18 -45z"/>
<path d="M13603 3917 c-76 -59 -113 -137 -99 -212 6 -30 11 -35 34 -35 59 0
124 65 138 138 9 45 -5 142 -19 142 -7 0 -31 -15 -54 -33z m18 -76 c-20 -50
-18 -63 8 -38 20 18 5 -9 -32 -55 -18 -24 -24 -38 -15 -38 20 -1 -23 -30 -44
-30 -15 0 -18 8 -18 43 0 23 5 49 10 57 8 12 10 10 10 -8 0 -36 17 -17 25 28
6 38 25 66 25 38 0 -7 10 4 22 24 29 51 33 42 9 -21z"/>
<path d="M12953 3922 c-30 -24 -45 -66 -33 -97 5 -14 11 -25 12 -25 2 0 4 18
4 40 1 22 9 46 18 55 14 14 15 13 11 -12 -2 -16 -6 -39 -9 -53 l-5 -25 19 24
c13 15 20 38 20 67 0 48 -5 52 -37 26z"/>
<path d="M14011 3902 c-45 -43 -58 -80 -43 -125 l10 -32 1 38 c1 23 5 36 11
32 6 -3 10 3 10 14 0 11 12 33 26 48 l26 28 -15 -37 c-14 -34 -14 -36 1 -31
15 6 15 4 -1 -14 -10 -12 -20 -29 -21 -38 -1 -9 -9 -21 -17 -26 -11 -7 -11 -9
-1 -9 28 0 70 56 77 102 7 48 0 88 -15 88 -5 0 -27 -17 -49 -38z"/>
<path d="M13128 3893 c-14 -16 -31 -39 -38 -52 -18 -35 -16 -103 5 -139 18
-29 20 -30 45 -17 53 27 72 105 47 189 -15 50 -26 53 -59 19z m22 -58 c-6 -42
1 -60 14 -32 3 6 3 1 -1 -13 -4 -14 -7 -36 -8 -50 -1 -51 -38 -70 -49 -26 -3
13 -9 32 -12 43 -5 16 -4 16 11 -2 16 -19 17 -18 12 33 -2 30 -1 48 4 41 8
-14 8 -13 24 36 9 30 12 14 5 -30z"/>
<path d="M11535 3857 c-8 -64 7 -126 40 -165 31 -37 81 -60 97 -44 17 17 22
108 8 142 -13 32 -106 120 -127 120 -7 0 -14 -22 -18 -53z m64 -44 c28 -54 30
-56 32 -28 1 25 3 22 13 -19 7 -27 17 -51 22 -53 12 -4 6 -50 -7 -59 -5 -3
-28 14 -51 36 -24 23 -33 37 -21 31 35 -18 36 -13 2 37 -18 26 -25 41 -16 33
21 -16 21 -14 2 38 -20 57 -11 51 24 -16z"/>
<path d="M11920 3845 c0 -68 47 -125 102 -125 23 0 28 4 28 25 0 44 -26 80
-79 109 l-51 27 0 -36z m70 -34 c1 8 8 2 16 -13 8 -16 19 -28 24 -28 6 0 10
-9 10 -20 0 -22 -24 -27 -50 -10 -13 9 -13 10 0 10 10 1 4 10 -15 25 -16 14
-26 25 -22 25 4 0 2 10 -4 23 -11 22 -11 22 15 -2 18 -17 26 -20 26 -10z"/>
<path d="M13863 3815 c-48 -41 -66 -79 -61 -131 3 -37 5 -39 33 -36 40 4 83
47 96 94 11 44 3 108 -15 108 -7 0 -31 -16 -53 -35z m27 -45 l-21 -41 21 11
c17 9 16 4 -10 -32 -32 -43 -57 -64 -67 -55 -3 3 -2 25 2 49 6 33 9 39 15 23
6 -17 9 -14 19 18 7 20 16 35 20 32 5 -2 14 7 21 20 23 42 23 19 0 -25z"/>
<path d="M12224 3815 c-9 -37 3 -85 28 -112 24 -25 48 -32 28 -8 -7 8 -9 15
-5 15 5 0 1 8 -7 18 -14 15 -31 72 -22 72 2 0 10 -12 18 -27 9 -16 16 -22 16
-13 0 8 8 -1 16 -20 8 -19 13 -43 10 -52 -2 -10 0 -16 5 -12 15 9 10 78 -6
101 -9 12 -29 31 -45 43 l-29 21 -7 -26z"/>
<path d="M10638 3751 c-43 -73 -45 -80 -27 -84 15 -4 40 13 92 59 40 36 73 69
75 74 3 9 -11 14 -63 25 -29 5 -32 2 -77 -74z"/>
<path d="M13295 3777 c-14 -24 -25 -53 -25 -65 0 -27 20 -72 33 -72 6 0 6 5 0
13 -14 17 -23 58 -12 51 5 -3 9 6 9 20 0 14 4 26 9 26 5 0 12 6 14 13 2 6 3
-1 1 -16 -3 -19 0 -26 8 -21 6 4 8 3 5 -3 -3 -5 -9 -25 -12 -44 l-5 -34 20 24
c22 25 27 83 10 125 -13 36 -25 33 -55 -17z"/>
<path d="M5957 3792 c-25 -27 -22 -78 5 -96 48 -34 108 -7 108 48 0 19 -8 40
-18 49 -25 22 -75 21 -95 -1z"/>
<path d="M3818 3786 c-101 -37 -141 -106 -117 -202 16 -61 61 -107 179 -178
117 -71 137 -90 149 -134 23 -81 -38 -149 -125 -138 -86 11 -134 58 -134 131
l0 38 -37 -6 c-49 -8 -66 -31 -60 -81 12 -86 106 -133 252 -124 160 10 240 92
221 223 -10 62 -65 119 -177 185 -51 30 -108 69 -126 88 -28 28 -33 39 -33 82
0 43 4 52 27 67 18 12 46 18 81 17 48 0 58 -4 83 -32 18 -20 29 -43 29 -62 0
-27 3 -30 33 -30 87 0 87 104 0 146 -50 23 -193 30 -245 10z"/>
<path d="M7559 3788 c-12 -11 -13 -63 -9 -341 5 -311 6 -329 24 -343 24 -17
77 -18 99 -1 13 10 15 19 7 52 -5 22 -10 88 -10 148 l0 107 37 0 c56 0 87 -36
123 -144 38 -114 62 -154 103 -171 59 -25 117 6 117 62 0 16 -7 22 -27 25 -30
3 -37 14 -103 160 -26 58 -36 69 -76 88 l-45 22 48 28 c80 46 128 115 138 200
9 74 -39 131 -97 117 -25 -7 -26 -9 -21 -65 11 -122 -65 -241 -169 -267 l-28
-7 0 155 c0 150 -1 156 -22 171 -27 19 -69 21 -89 4z"/>
<path d="M11399 3788 c-7 -80 32 -132 113 -152 23 -5 28 -3 34 18 11 45 -28
97 -94 126 -53 24 -52 23 -53 8z m76 -63 c-4 12 7 6 30 -18 45 -46 42 -72 -6
-55 -20 7 -27 13 -19 18 8 5 2 13 -18 25 -17 10 -28 24 -25 31 2 6 0 15 -6 19
-6 3 -11 10 -11 16 0 5 14 -5 31 -23 21 -23 29 -27 24 -13z"/>
<path d="M11760 3793 c0 -5 14 -32 30 -60 38 -66 76 -88 148 -84 50 2 16 94
-48 130 -37 20 -130 30 -130 14z m114 -63 c3 0 3 8 -1 18 -3 9 8 1 25 -18 17
-19 31 -30 32 -25 1 14 20 -17 20 -32 0 -15 -44 -16 -75 -3 -18 8 -18 9 5 10
22 1 19 4 -20 25 -25 13 -39 24 -31 25 10 0 7 8 -10 27 l-24 27 37 -27 c20
-15 39 -27 42 -27z"/>
<path d="M13753 3789 c-17 -5 -41 -21 -52 -35 -21 -26 -28 -78 -13 -88 4 -2 6
12 4 32 -2 24 0 32 6 24 6 -9 12 -6 21 14 6 15 15 24 18 20 3 -3 13 0 22 6 10
8 9 4 -3 -10 -11 -12 -14 -22 -8 -22 6 0 0 -12 -15 -26 -28 -28 -25 -41 6 -25
22 12 44 50 55 94 7 29 6 30 -41 16z"/>
<path d="M14046 3735 c-77 -27 -125 -100 -112 -171 6 -31 9 -34 34 -28 74 18
123 67 147 146 8 29 15 55 15 60 0 12 -40 9 -84 -7z m21 -53 c-41 -42 -46 -54
-19 -46 10 3 4 -6 -14 -23 -17 -15 -34 -35 -37 -44 -3 -9 -15 -19 -26 -22 -18
-4 -21 -1 -21 26 0 18 3 43 7 57 l7 25 6 -25 c6 -23 8 -22 33 25 15 28 26 42
27 32 0 -17 3 -16 31 7 45 38 49 32 6 -12z"/>
<path d="M12013 3653 c12 -73 81 -133 153 -133 24 0 46 5 49 10 10 16 -13 75
-39 99 -20 18 -130 61 -160 61 -5 0 -6 -17 -3 -37z m111 -53 c6 0 5 5 -2 12
-7 7 -12 16 -12 22 0 5 15 -5 33 -22 18 -18 36 -29 40 -26 3 4 11 -6 17 -21 6
-15 9 -30 6 -32 -2 -3 -26 -1 -53 3 -40 6 -44 9 -23 14 24 7 24 7 -14 23 -21
10 -44 17 -50 17 -6 0 -5 4 3 9 9 6 10 11 2 15 -6 4 -16 17 -22 28 -9 17 -3
15 27 -10 21 -18 43 -32 48 -32z"/>
<path d="M12918 3629 c-50 -48 -69 -75 -78 -106 -13 -50 0 -110 28 -136 17
-16 21 -15 52 8 59 43 82 87 87 162 4 45 1 79 -9 102 l-14 34 -66 -64z m32
-60 c-11 -30 -20 -55 -20 -57 0 -1 12 5 28 15 27 17 27 17 11 -2 -30 -36 -51
-85 -37 -85 7 0 0 -12 -15 -27 -35 -35 -48 -23 -54 49 -4 52 -3 52 10 23 l14
-30 8 63 c5 47 10 60 19 53 9 -7 17 0 31 25 26 49 29 35 5 -27z"/>
<path d="M12560 3650 c-19 -35 -16 -112 6 -148 25 -44 69 -75 83 -59 43 53 34
112 -29 180 l-47 51 -13 -24z m60 -85 l1 20 9 -20 c5 -11 9 -33 9 -48 1 -16 5
-26 11 -22 14 9 12 -18 -2 -38 -12 -16 -16 -14 -41 18 -20 25 -23 33 -10 28
15 -6 14 -2 -5 31 -12 20 -18 34 -12 31 6 -4 8 7 4 27 l-5 33 20 -40 c14 -29
20 -35 21 -20z"/>
<path d="M11810 3603 c1 -78 55 -154 122 -168 34 -8 48 4 48 42 0 58 -49 113
-132 148 l-38 15 0 -37z m94 -52 c-3 15 4 7 18 -19 13 -24 26 -40 30 -37 9 9
16 -31 8 -45 -5 -9 -17 -7 -46 9 -28 15 -34 20 -19 21 17 1 15 5 -15 30 -19
17 -29 30 -22 30 9 0 7 8 -5 28 -15 25 -14 24 20 -7 34 -32 36 -32 31 -10z"/>
<path d="M4545 3601 c-49 -22 -98 -76 -116 -128 -20 -56 -18 -188 4 -245 36
-93 125 -144 237 -136 114 8 188 76 210 191 27 147 -21 270 -125 318 -53 25
-156 25 -210 0z m158 -42 c36 -27 57 -104 57 -204 0 -144 -40 -225 -112 -225
-38 0 -83 44 -97 96 -14 50 -14 208 0 258 23 84 96 120 152 75z"/>
<path d="M5149 3599 c-28 -28 -22 -63 14 -67 l27 -3 0 -193 c0 -180 1 -195 21
-220 23 -29 72 -36 103 -13 14 10 15 17 7 40 -17 43 -14 254 4 314 27 92 104
134 151 82 17 -19 20 -43 24 -221 5 -183 7 -201 24 -214 23 -17 54 -18 91 -4
20 8 25 15 20 28 -4 9 -11 100 -14 202 -6 148 -11 192 -24 218 -51 95 -211 97
-273 5 -22 -33 -34 -34 -34 -1 0 57 -98 90 -141 47z"/>
<path d="M5955 3612 c-7 -5 -9 -89 -5 -250 5 -226 6 -245 24 -258 24 -17 67
-18 87 -1 12 10 14 48 9 250 -5 221 -6 240 -24 253 -21 15 -74 19 -91 6z"/>
<path d="M6475 3605 c-69 -25 -103 -87 -79 -150 15 -37 94 -57 128 -32 16 12
16 14 2 26 -25 21 -21 96 6 115 31 22 84 20 107 -3 23 -23 41 -81 41 -132 l0
-36 -66 -7 c-161 -17 -269 -103 -248 -200 25 -122 219 -122 295 1 20 32 24 35
27 18 9 -56 26 -86 54 -101 57 -29 128 3 128 58 0 25 -3 28 -23 23 -14 -4 -28
-1 -34 7 -7 7 -13 74 -15 158 -4 174 -19 214 -91 249 -52 25 -169 28 -232 6z
m205 -278 c0 -38 -43 -110 -79 -134 -43 -29 -76 -29 -95 -1 -47 67 31 157 137
158 32 0 37 -3 37 -23z"/>
<path d="M8329 3608 c-14 -11 -15 -40 -9 -208 5 -144 11 -205 23 -232 42 -100
207 -106 272 -11 l23 35 12 -36 c14 -44 44 -66 87 -66 34 0 73 29 73 54 0 30
-11 43 -34 39 -33 -7 -36 12 -36 223 0 162 -2 183 -18 197 -22 20 -72 22 -94
5 -14 -11 -15 -22 -6 -73 5 -33 8 -109 5 -168 -5 -86 -11 -118 -29 -155 -29
-59 -69 -82 -107 -61 -41 23 -50 68 -50 254 -1 194 -7 215 -65 215 -18 0 -39
-6 -47 -12z"/>
<path d="M9049 3599 c-28 -28 -22 -63 14 -67 l27 -3 0 -187 c0 -130 4 -195 13
-212 17 -34 57 -47 96 -30 27 11 30 16 23 39 -4 14 -7 91 -7 171 0 117 4 154
18 193 25 63 60 83 91 51 18 -17 21 -71 6 -94 -23 -36 60 -41 95 -5 38 37 34
88 -9 131 -30 30 -40 34 -87 34 -48 0 -55 -3 -90 -40 -42 -44 -49 -48 -49 -25
0 9 -11 27 -25 40 -31 32 -86 34 -116 4z"/>
<path d="M9807 3606 c-59 -22 -87 -53 -87 -97 0 -51 8 -67 41 -84 33 -18 63
-19 90 -4 20 10 20 11 3 30 -26 29 -24 87 5 110 23 19 65 24 96 13 24 -10 45
-57 51 -121 l6 -58 -80 -11 c-95 -13 -182 -52 -214 -96 -15 -21 -22 -47 -22
-80 -1 -44 3 -53 31 -78 69 -62 159 -48 241 36 48 50 52 52 52 28 0 -87 109
-136 165 -74 22 24 17 66 -8 62 -40 -7 -47 14 -47 142 -1 173 -15 219 -84 270
-35 27 -180 34 -239 12z m200 -291 c-12 -72 -79 -145 -134 -145 -51 0 -68 94
-25 133 28 26 84 46 126 47 l39 0 -6 -35z"/>
<path d="M10525 3601 c-47 -21 -63 -38 -75 -82 -13 -43 3 -101 38 -139 15 -16
69 -50 120 -76 104 -52 131 -80 116 -122 -20 -59 -153 -64 -190 -7 -8 13 -16
40 -17 59 -2 29 -6 36 -22 36 -63 0 -86 -73 -40 -128 33 -39 96 -56 188 -50
96 6 149 35 178 95 42 87 9 141 -130 212 -98 50 -141 87 -141 120 0 32 25 53
71 58 55 6 94 -20 103 -72 7 -37 28 -45 67 -25 21 12 26 58 9 89 -26 49 -195
69 -275 32z"/>
<path d="M13422 3561 c-65 -62 -79 -125 -42 -181 8 -13 14 -12 47 5 43 23 83
90 83 141 0 38 -16 84 -28 84 -5 0 -32 -22 -60 -49z m42 -28 c-30 -71 -30 -70
-11 -54 23 18 21 5 -3 -26 -11 -14 -18 -29 -15 -33 2 -4 -5 -16 -16 -26 -17
-16 -22 -16 -29 -4 -6 8 -9 33 -9 55 1 22 3 32 6 23 8 -31 21 -20 28 23 5 27
10 37 15 29 6 -9 13 -4 24 19 23 43 30 39 10 -6z"/>
<path d="M13652 3591 c-86 -30 -132 -85 -132 -161 0 -38 2 -40 29 -40 86 0
147 59 177 173 14 56 10 57 -74 28z m27 -38 c-7 -10 -24 -30 -37 -45 l-25 -27
24 6 c23 5 22 4 -6 -21 -16 -14 -34 -25 -39 -26 -4 0 -6 -6 -3 -14 6 -15 -12
-26 -40 -26 -13 0 -15 9 -10 46 2 25 10 51 17 57 9 9 10 6 5 -15 -11 -42 1
-34 35 25 17 29 30 44 30 34 0 -18 2 -17 28 2 33 25 38 26 21 4z"/>
<path d="M11570 3542 c0 -107 63 -195 159 -222 30 -8 38 -7 49 7 28 39 2 143
-49 190 -21 19 -139 83 -153 83 -3 0 -6 -26 -6 -58z m84 -50 l36 -44 0 29 c1
24 5 21 31 -31 23 -44 33 -56 40 -45 6 9 9 0 9 -28 0 -49 -6 -51 -58 -23 -64
33 -72 42 -32 35 l35 -6 -25 22 c-14 12 -38 32 -55 46 -25 21 -26 24 -8 18 22
-6 22 -6 -4 42 -29 53 -23 50 31 -15z"/>
<path d="M13091 3541 c-46 -86 -50 -144 -17 -216 l26 -57 31 19 c49 28 72 66
77 125 3 45 -1 62 -30 117 -18 36 -38 66 -44 68 -6 2 -25 -23 -43 -56z m69
-101 c19 25 19 24 1 -37 -13 -44 -16 -63 -7 -66 13 -5 -21 -47 -39 -47 -6 0
-17 18 -24 41 -7 23 -15 48 -18 58 -3 10 3 8 16 -8 l21 -23 0 23 c0 13 -5 42
-10 64 -8 36 -7 38 6 21 13 -19 14 -18 14 10 0 16 4 40 8 54 5 18 8 5 10 -45
l3 -70 19 25z"/>
<path d="M11434 3546 c-13 -72 36 -146 97 -146 26 0 29 4 29 30 0 17 -7 44
-14 59 -16 30 -80 91 -96 91 -5 0 -12 -15 -16 -34z m66 -46 c5 8 11 2 18 -19
6 -17 16 -31 21 -31 6 0 11 -9 11 -20 0 -11 -6 -20 -12 -20 -19 1 -66 29 -49
30 11 0 10 5 -4 20 -10 11 -19 34 -20 52 l-3 33 15 -29 c10 -20 17 -25 23 -16z"/>
<path d="M12254 3448 c8 -58 37 -131 64 -162 24 -26 91 -56 130 -56 32 0 32 0
32 48 -1 93 -63 174 -159 207 -72 24 -75 23 -67 -37z m85 -41 c40 -47 41 -48
41 -20 0 25 3 24 28 -22 15 -27 31 -49 37 -47 10 4 23 -23 24 -52 1 -16 -4
-18 -35 -13 -19 3 -50 15 -67 27 l-32 21 35 -6 35 -6 -25 22 c-14 12 -38 32
-55 46 -27 22 -27 24 -7 18 l23 -7 -24 39 c-50 81 -48 81 22 0z"/>
<path d="M13845 3488 c-11 -6 -28 -20 -37 -32 -19 -23 -24 -66 -8 -66 5 0 7 7
4 15 -3 8 1 24 10 37 9 12 16 17 16 10 0 -9 7 -8 25 4 14 9 25 14 25 10 0 -3
12 -1 28 4 25 9 26 9 8 -5 -11 -8 -23 -15 -28 -15 -4 0 -8 -7 -8 -15 0 -8 -6
-15 -13 -15 -17 0 -54 -27 -46 -34 3 -3 22 -1 42 5 43 12 115 88 95 101 -19
11 -90 9 -113 -4z"/>
<path d="M11330 3449 c0 -57 51 -119 97 -119 19 0 23 5 23 30 0 38 -44 87 -87
99 -29 9 -33 7 -33 -10z m70 -44 c0 4 9 -4 20 -18 23 -29 26 -47 8 -47 -15 0
-48 20 -34 20 5 0 3 8 -5 18 -8 9 -20 28 -28 42 l-14 25 27 -24 c14 -14 26
-21 26 -16z"/>
<path d="M11960 3379 c0 -78 85 -140 154 -113 9 3 16 10 16 15 0 5 -11 4 -25
-1 -15 -6 -34 -6 -47 0 -21 8 -21 9 -3 10 14 0 8 6 -20 19 -22 11 -36 20 -31
20 5 1 3 8 -4 16 -17 20 -1 19 22 -2 13 -12 18 -13 18 -3 0 9 9 5 25 -10 14
-13 25 -20 25 -16 0 5 7 3 15 -4 20 -17 18 0 -3 26 -21 24 -47 40 -103 59
l-39 14 0 -30z"/>
<path d="M12805 3310 c-36 -51 -43 -115 -20 -165 24 -48 41 -54 72 -22 37 36
43 114 14 180 -11 26 -24 47 -29 47 -5 0 -22 -18 -37 -40z m50 -80 c13 11 13
8 4 -19 -6 -17 -8 -38 -5 -47 7 -17 -10 -54 -24 -54 -10 0 -40 52 -40 71 0 9
3 9 14 0 11 -9 12 -4 6 31 -5 24 -6 45 -4 47 2 2 4 -2 4 -10 0 -24 19 12 22
41 1 14 3 3 5 -23 4 -41 6 -47 18 -37z"/>
<path d="M13349 3327 c-25 -17 -35 -31 -37 -56 -2 -18 1 -38 6 -43 6 -6 8 -1
6 14 -4 24 7 42 41 68 18 13 19 13 9 0 -6 -8 -16 -29 -22 -47 -8 -26 -8 -31 3
-27 27 11 61 114 36 114 -4 0 -23 -10 -42 -23z"/>
<path d="M11415 3258 c10 -35 38 -71 76 -96 27 -18 44 -22 89 -20 55 3 55 3
52 33 -7 63 -76 105 -175 105 -45 0 -48 -1 -42 -22z m114 -25 c-11 20 -9 19
24 -6 21 -16 42 -25 47 -22 8 5 30 -32 30 -51 0 -6 -42 -5 -69 3 -23 6 -23 7
-5 14 15 5 10 9 -23 14 -24 4 -40 11 -38 15 3 5 -7 18 -22 29 l-28 21 48 -20
47 -19 -11 22z"/>
<path d="M11760 3246 c0 -25 42 -77 74 -92 40 -19 106 -12 106 11 0 8 -12 29
-28 46 -23 26 -37 32 -90 38 -42 5 -62 4 -62 -3z m103 -39 c4 3 13 0 22 -7 8
-7 15 -9 15 -5 0 4 7 2 15 -5 23 -19 18 -30 -16 -30 -17 0 -28 4 -24 10 3 6
-3 10 -14 10 -11 0 -32 11 -47 25 l-27 25 35 -14 c20 -9 38 -12 41 -9z"/>
<path d="M13650 3251 c-44 -9 -83 -35 -105 -68 -17 -25 -16 -26 11 -49 77 -62
168 -68 283 -18 l64 28 -39 34 c-67 59 -147 86 -214 73z m0 -42 l-25 -20 55 6
c30 4 64 9 75 11 16 4 14 1 -5 -10 -23 -14 -23 -15 -5 -16 11 -1 38 -8 60 -15
38 -13 37 -13 -40 -8 l-80 6 25 -22 c19 -17 20 -21 7 -17 -46 15 -100 19 -93
8 4 -7 4 -12 1 -12 -14 0 -75 33 -75 40 0 18 81 69 110 69 10 0 7 -6 -10 -20z"/>
<path d="M13031 3227 c-6 -8 -18 -30 -26 -51 -13 -30 -14 -44 -5 -72 13 -40
19 -41 48 -14 29 28 36 59 22 109 -11 43 -20 50 -39 28z m9 -63 c0 -8 4 -12
10 -9 7 4 7 -3 0 -19 -5 -14 -7 -26 -4 -26 4 0 1 -7 -6 -15 -20 -24 -32 -3
-24 43 6 40 24 59 24 26z"/>
<path d="M12150 3215 c0 -27 38 -91 70 -119 33 -27 55 -35 105 -39 27 -2 30 1
33 28 6 66 -62 126 -160 140 -40 5 -48 4 -48 -10z m82 -47 c33 -23 39 -23 32
0 -3 9 9 1 27 -18 18 -19 37 -34 41 -33 8 3 22 -36 15 -44 -3 -3 -24 -2 -47 2
-36 6 -39 8 -24 20 16 11 14 14 -19 26 -20 7 -34 16 -31 21 3 4 -7 20 -23 34
-29 27 -16 24 29 -8z"/>
<path d="M13931 3153 c-16 -16 -32 -39 -36 -53 -6 -22 -4 -21 13 6 23 37 45
54 35 28 -6 -15 -4 -15 21 1 15 10 41 19 59 21 l32 2 -32 -16 c-18 -10 -31
-21 -30 -27 1 -5 -8 -11 -20 -13 -13 -2 -23 -7 -23 -12 0 -5 -10 -11 -22 -13
-13 -2 -5 -5 18 -6 48 -1 95 27 126 77 l20 32 -66 0 c-58 0 -69 -3 -95 -27z"/>
<path d="M11343 3162 c-49 -4 -54 -16 -22 -56 40 -50 104 -69 163 -46 33 12
33 22 -1 60 -31 34 -74 47 -140 42z m64 -38 c-5 11 3 11 34 -3 41 -19 66 -38
58 -45 -2 -2 -22 -7 -43 -10 -36 -7 -38 -6 -27 8 12 14 9 16 -23 16 -22 0 -35
4 -31 10 3 6 2 10 -2 10 -5 0 -18 7 -29 15 -17 13 -14 13 25 0 37 -13 42 -13
38 -1z"/>
<path d="M13358 3124 c-27 -14 -48 -42 -48 -64 0 -13 61 -40 92 -40 24 0 91
31 127 59 l25 19 -42 21 c-48 24 -115 27 -154 5z m22 -19 c-16 -19 -9 -19 36
0 19 8 32 10 29 5 -4 -6 10 -10 32 -11 36 -1 35 -2 -17 -13 -32 -7 -49 -15
-40 -18 8 -4 -2 -7 -23 -7 -23 -1 -36 -5 -32 -11 8 -13 -15 -13 -35 0 -12 8
-10 14 15 40 29 30 58 43 35 15z"/>
<path d="M11561 3070 c-43 -20 -43 -21 -26 -40 10 -11 42 -32 71 -46 59 -29
110 -27 153 5 30 23 23 48 -22 79 -42 28 -115 29 -176 2z m159 -30 c6 0 8 5 4
13 -5 7 2 6 16 -4 36 -24 35 -38 -4 -54 -46 -19 -65 -19 -40 1 18 14 15 15
-34 11 -30 -2 -48 -1 -41 4 11 6 10 9 -1 13 -8 2 -22 7 -30 9 -8 3 5 6 29 6
37 1 42 3 31 16 -11 13 -8 13 23 0 20 -8 41 -15 47 -15z"/>
<path d="M12410 3030 c0 -28 45 -90 76 -105 38 -18 70 -19 80 -3 4 7 3 8 -4 4
-6 -4 -23 -4 -37 0 -19 5 -23 9 -14 15 9 5 5 10 -14 14 -15 4 -27 13 -27 20 0
7 -7 16 -16 19 -9 4 -14 9 -11 12 3 3 16 -2 29 -10 14 -9 27 -14 30 -11 3 3
11 -1 18 -10 7 -8 19 -15 26 -15 8 0 14 -5 14 -12 0 -6 3 -8 6 -5 9 9 -22 54
-49 71 -31 20 -107 31 -107 16z"/>
<path d="M13937 2999 c-62 -10 -117 -46 -142 -93 -20 -37 -20 -37 0 -52 89
-66 221 -25 284 88 14 26 24 48 21 51 -11 9 -117 13 -163 6z m33 -34 c-20 -24
-7 -27 40 -10 66 23 61 17 -14 -20 l-68 -34 33 -9 c32 -8 30 -9 -34 -16 -37
-4 -65 -12 -62 -17 8 -13 -32 -11 -57 2 -19 10 -18 13 23 55 48 49 68 58 43
19 -22 -34 -8 -31 51 9 58 40 62 41 45 21z"/>
<path d="M12796 2972 c-21 -40 -20 -65 2 -89 9 -10 14 -14 11 -8 -8 12 -5 73
4 81 4 4 9 -13 13 -37 6 -38 8 -41 17 -22 11 25 4 59 -16 87 -14 19 -15 19
-31 -12z"/>
<path d="M12110 2916 c0 -37 43 -110 79 -133 38 -25 97 -30 124 -10 16 11 16
14 1 42 -25 50 -65 84 -113 99 -85 26 -91 26 -91 2z m108 -70 c12 -7 12 -4 2
15 -10 19 -5 17 24 -10 21 -20 36 -29 36 -21 0 9 5 7 15 -6 26 -35 19 -44 -37
-43 -41 1 -47 3 -28 9 24 7 23 8 -20 28 -25 11 -39 21 -31 21 10 1 5 12 -15
33 l-29 32 35 -25 c19 -14 41 -29 48 -33z"/>
<path d="M11483 2923 c-30 -6 -29 -12 12 -60 62 -72 148 -90 209 -42 24 19 25
22 11 43 -27 40 -87 66 -151 65 -33 -1 -69 -4 -81 -6z m166 -48 c18 -6 22 -4
15 6 -6 10 -1 9 16 -2 36 -24 35 -38 -4 -54 -47 -20 -81 -20 -46 0 24 14 22
14 -35 15 -40 1 -53 4 -40 9 18 7 17 9 -10 25 -28 16 -28 17 -5 12 14 -3 36
-9 50 -12 l25 -7 -20 23 -20 23 25 -15 c14 -9 36 -19 49 -23z"/>
<path d="M13261 2872 c-57 -28 -96 -105 -73 -141 13 -18 82 -6 124 23 31 20
98 108 98 127 0 16 -113 10 -149 -9z m67 -23 c39 21 37 11 -3 -16 -32 -22 -36
-28 -22 -31 15 -3 12 -7 -13 -21 -18 -9 -31 -21 -30 -26 2 -9 -25 -23 -47 -24
-16 -1 -17 29 -2 66 10 24 12 26 18 9 6 -16 11 -13 35 19 19 25 31 33 36 25 6
-9 13 -9 28 -1z"/>
<path d="M13095 2843 c-65 -34 -101 -92 -88 -143 6 -24 24 -25 69 -4 38 18 74
82 74 132 0 36 -10 39 -55 15z m11 -48 c-15 -20 -22 -35 -15 -35 7 0 2 -11
-11 -25 -13 -14 -19 -25 -14 -25 14 0 -19 -20 -33 -20 -15 0 -17 48 -3 70 8
12 10 12 11 -5 0 -14 6 -8 20 20 10 22 19 33 19 25 0 -11 6 -9 22 8 33 32 34
27 4 -13z"/>
<path d="M11797 2823 c-27 -4 -27 -4 -10 -33 27 -46 89 -74 146 -66 25 4 49
11 51 15 3 4 -15 5 -39 1 -37 -6 -43 -4 -34 7 9 10 5 13 -20 13 -17 0 -31 4
-31 9 0 5 -12 12 -26 15 -41 11 -23 16 19 6 33 -7 36 -6 25 7 -10 13 -6 13 26
-1 22 -9 41 -14 44 -11 3 2 11 -3 18 -13 7 -9 14 -12 14 -5 0 6 -14 23 -31 37
-31 26 -71 31 -152 19z"/>
<path d="M13525 2801 c-47 -21 -71 -46 -80 -82 -6 -24 -2 -28 34 -43 54 -21
126 -20 176 3 38 17 105 81 105 100 0 11 -119 41 -162 41 -18 0 -51 -9 -73
-19z m9 -36 l-16 -24 62 24 c48 19 59 21 48 8 -12 -15 -8 -16 42 -10 64 6 40
-7 -45 -25 l-50 -11 35 -13 c35 -12 35 -12 -28 -13 -41 -1 -61 -5 -57 -11 7
-11 -37 -4 -62 9 -17 9 9 47 51 72 39 24 40 24 20 -6z"/>
<path d="M13868 2784 c-15 -8 -33 -24 -39 -36 -29 -54 82 -67 149 -18 23 17
42 34 42 39 0 13 -57 31 -94 31 -17 -1 -43 -7 -58 -16z m67 -14 c-4 -7 3 -9
22 -5 21 5 24 4 13 -4 -8 -6 -23 -11 -33 -11 -10 0 -15 -4 -12 -10 4 -6 -7
-10 -24 -10 -17 0 -31 -4 -31 -9 0 -5 -9 -7 -20 -4 -24 6 -25 11 -3 35 17 19
39 25 28 8 -4 -6 8 -4 27 4 42 18 40 18 33 6z"/>
<path d="M12922 2750 c-12 -13 -22 -27 -22 -31 0 -4 -3 -15 -6 -23 -5 -12 -2
-15 10 -10 9 3 16 14 16 23 0 13 2 14 9 2 6 -9 5 -25 0 -40 l-9 -26 20 24 c21
24 23 39 11 80 l-7 25 -22 -24z"/>
<path d="M11550 2753 c-8 -3 -26 -10 -39 -15 -23 -8 -23 -9 -6 -28 10 -11 35
-25 55 -31 30 -9 43 -8 68 5 18 9 32 19 32 22 0 2 -9 0 -20 -6 -15 -8 -32 -7
-63 2 -33 9 -37 13 -19 16 13 2 19 8 16 14 -4 6 -2 8 4 4 11 -7 72 -16 72 -10
0 7 -59 34 -72 33 -7 0 -20 -3 -28 -6z"/>
<path d="M13762 2647 c-12 -7 -29 -23 -37 -34 -15 -21 -14 -23 10 -39 36 -23
103 -14 149 21 20 15 36 31 36 35 0 10 -72 30 -106 30 -16 -1 -39 -6 -52 -13z
m12 -22 c-5 -13 -2 -13 31 1 24 10 34 11 29 3 -5 -9 1 -10 22 -5 21 5 25 4 14
-4 -8 -5 -23 -10 -32 -10 -10 0 -18 -4 -18 -9 0 -10 -69 -20 -89 -13 -10 4 -6
12 15 29 34 27 35 27 28 8z"/>
<path d="M11630 2623 c-30 -16 -56 -33 -58 -39 -5 -19 116 -74 161 -74 44 0
106 31 126 62 10 17 9 22 -6 34 -63 51 -144 57 -223 17z m146 -18 c16 -4 23
-2 19 5 -8 13 -2 13 30 -2 14 -6 25 -15 25 -19 0 -9 -48 -43 -74 -53 -20 -7
-20 -7 -1 14 l19 21 -29 -6 c-17 -4 -46 -11 -65 -16 -30 -7 -33 -6 -17 5 16
12 13 15 -30 24 l-48 10 64 1 c60 1 63 2 45 16 -21 17 -19 17 62 0z"/>
<path d="M12241 2604 c-36 -30 -66 -70 -75 -101 -7 -22 -5 -23 43 -23 86 0
140 33 162 98 14 42 3 52 -58 52 -30 0 -50 -7 -72 -26z m123 8 c3 -5 -6 -26
-20 -48 -19 -29 -24 -33 -20 -15 5 22 3 22 -30 -10 -19 -18 -34 -27 -34 -21 0
9 -8 8 -30 -3 -48 -25 -46 -17 6 20 45 33 46 35 19 30 -23 -4 -18 0 18 17 27
13 45 26 41 31 -4 4 4 7 19 7 14 0 28 -4 31 -8z"/>
<path d="M12470 2603 c-28 -25 -34 -38 -37 -84 -2 -30 1 -61 7 -69 9 -13 17
-8 50 29 31 34 40 52 40 80 0 21 -6 45 -13 55 -13 18 -15 17 -47 -11z m49 -38
c1 -17 -1 -17 -9 -5 -8 12 -10 11 -10 -6 0 -12 -9 -32 -21 -45 l-21 -24 8 29
c5 23 4 27 -6 21 -8 -5 -7 1 3 16 9 13 17 31 17 40 0 10 6 19 13 22 13 4 25
-17 26 -48z"/>
<path d="M11963 2599 c-18 -12 -33 -23 -33 -25 0 -3 16 -12 35 -20 43 -18 76
-10 107 24 22 26 22 26 0 8 -12 -11 -25 -16 -28 -13 -4 3 -14 3 -23 -2 -9 -5
-25 -5 -36 0 -17 6 -17 8 -2 8 9 1 17 6 17 11 0 6 10 10 23 10 12 0 29 5 37
10 11 7 4 10 -25 10 -23 0 -53 -9 -72 -21z"/>
<path d="M13535 2580 c-42 -17 -48 -35 -20 -68 36 -43 102 -66 165 -59 28 3
55 9 60 12 16 10 -50 83 -95 105 -43 21 -76 24 -110 10z m52 -17 c-30 -8 -7
-23 36 -23 28 0 37 -3 28 -9 -11 -7 -5 -14 25 -30 47 -24 42 -26 -16 -6 -52
18 -51 18 -43 0 4 -12 -3 -11 -31 6 -24 14 -36 17 -36 8 0 -8 -7 -6 -20 6 -11
10 -20 22 -20 27 0 12 40 27 70 26 17 0 19 -2 7 -5z"/>
<path d="M13106 2526 c-9 -19 -16 -40 -16 -48 1 -20 38 -98 48 -98 14 0 42 68
42 103 0 36 -24 77 -44 77 -8 0 -21 -15 -30 -34z m55 -8 c9 -16 8 -19 -2 -13
-9 6 -11 0 -6 -24 4 -18 3 -30 -2 -26 -5 3 -12 -5 -14 -17 -4 -20 -4 -19 -6 5
0 16 -5 26 -9 23 -8 -5 -5 44 4 72 5 16 20 8 35 -20z"/>
<path d="M13230 2541 c-5 -11 -10 -38 -10 -60 0 -54 48 -109 101 -117 l36 -6
-12 59 c-15 72 -27 95 -61 122 -33 26 -41 26 -54 2z m56 -22 c18 -19 22 -28
11 -24 -21 9 -22 -8 -2 -25 9 -7 14 -19 11 -27 -3 -8 1 -26 10 -41 15 -25 15
-25 -10 3 -14 17 -26 35 -27 40 0 6 -4 1 -9 -10 -6 -17 -9 -13 -15 20 -4 22
-12 43 -18 46 -10 7 0 49 12 49 4 0 20 -14 37 -31z"/>
<path d="M11939 2449 c-20 -12 -43 -34 -52 -49 -15 -25 -15 -28 -1 -34 24 -9
90 -7 118 4 31 11 66 45 66 63 0 16 -42 37 -73 37 -12 0 -38 -10 -58 -21z
m118 -15 c2 -7 -11 -22 -29 -35 -21 -15 -28 -17 -19 -6 17 21 9 22 -31 1 -18
-9 -27 -11 -23 -4 5 9 1 10 -16 6 -20 -6 -19 -4 5 10 21 12 25 18 15 24 -8 6
1 10 27 13 54 5 67 4 71 -9z"/>
<path d="M1853 2423 c-20 -8 -18 -536 2 -553 29 -24 35 0 35 133 0 118 3 136
23 172 29 51 81 74 123 53 46 -22 54 -49 54 -204 0 -115 3 -144 15 -154 32
-26 38 2 33 157 -6 203 -23 233 -128 233 -46 0 -56 -4 -87 -35 -19 -19 -36
-35 -38 -35 -2 0 -3 52 -2 117 2 114 -2 128 -30 116z"/>
<path d="M9467 2423 c-11 -10 -8 -551 2 -557 5 -4 15 -4 23 -1 10 4 12 30 10
113 -4 126 7 180 47 225 24 26 36 32 70 32 75 0 90 -40 91 -236 0 -97 3 -128
13 -132 8 -3 18 -2 23 1 14 10 1 312 -14 339 -20 35 -53 53 -100 53 -50 0 -91
-21 -116 -59 -16 -25 -16 -22 -14 96 2 95 0 124 -10 128 -17 6 -17 6 -25 -2z"/>
<path d="M308 2403 l-28 -4 0 -258 c0 -214 3 -261 15 -271 27 -23 35 0 35 104
l0 102 76 12 c126 20 174 65 174 162 0 69 -22 107 -74 130 -43 19 -149 32
-198 23z m162 -41 c44 -21 60 -53 60 -118 0 -85 -57 -134 -155 -134 l-45 0 0
135 0 135 53 0 c29 0 67 -8 87 -18z"/>
<path d="M6091 2359 c-35 -56 -36 -59 -20 -59 11 0 98 90 99 103 0 4 -11 7
-24 7 -17 0 -31 -13 -55 -51z"/>
<path d="M4476 2385 c-8 -22 -8 -21 10 -39 21 -22 56 -3 52 27 -4 28 -52 37
-62 12z"/>
<path d="M7957 2394 c-13 -14 -7 -43 12 -53 24 -13 55 8 50 35 -4 19 -48 32
-62 18z"/>
<path d="M2703 2352 c-6 -4 -13 -28 -15 -52 -3 -41 -6 -45 -30 -48 -38 -4 -36
-22 2 -22 l30 0 0 -164 0 -165 27 -21 c38 -30 102 -16 103 22 0 4 -15 4 -34 1
-51 -8 -57 12 -54 179 l3 143 48 3 c34 2 47 7 47 18 0 12 -11 14 -47 12 l-48
-3 0 49 c0 49 -9 63 -32 48z"/>
<path d="M5282 2351 c-6 -3 -12 -27 -14 -51 -3 -41 -6 -45 -30 -48 -38 -4 -36
-22 2 -22 l30 0 0 -161 c0 -88 4 -169 10 -179 20 -38 110 -33 110 6 0 10 -7
13 -25 8 -50 -12 -55 4 -55 172 l0 154 50 0 c38 0 50 4 50 16 0 12 -10 14 -47
12 l-48 -3 2 47 c1 46 -11 64 -35 49z"/>
<path d="M13012 2288 c-28 -28 -7 -78 33 -78 27 0 45 18 45 45 0 27 -18 45
-45 45 -12 0 -26 -5 -33 -12z"/>
<path d="M750 2260 c-51 -12 -84 -54 -76 -98 7 -47 46 -85 119 -117 78 -35
107 -61 107 -96 0 -35 -40 -59 -100 -59 -61 0 -98 23 -106 65 -7 38 -29 47
-37 15 -8 -33 24 -84 63 -97 87 -30 187 -5 215 53 30 64 5 98 -115 159 -88 44
-114 72 -103 113 7 28 55 46 104 39 49 -6 69 -22 69 -54 0 -18 5 -24 18 -21
27 5 22 57 -8 79 -30 22 -102 31 -150 19z"/>
<path d="M1040 2123 c0 -76 5 -154 10 -174 27 -96 139 -114 209 -33 l31 35 0
-35 c0 -67 -22 -139 -50 -168 -24 -23 -37 -28 -78 -28 -61 0 -88 24 -79 70 6
25 3 30 -14 30 -43 0 -41 -81 2 -109 12 -7 45 -15 73 -18 69 -6 131 26 160 82
19 37 21 58 21 260 0 212 -1 220 -20 223 -19 3 -20 -3 -20 -125 0 -108 -3
-134 -20 -168 -38 -75 -131 -95 -162 -34 -8 15 -13 72 -13 161 0 150 -3 168
-31 168 -18 0 -19 -9 -19 -137z"/>
<path d="M1509 2237 c-99 -65 -108 -272 -15 -345 81 -63 236 -19 236 67 l0 26
-20 -32 c-24 -40 -48 -53 -100 -53 -92 0 -130 50 -130 170 0 78 14 116 56 149
35 28 97 28 124 1 22 -22 27 -74 9 -86 -8 -5 -6 -10 5 -16 13 -7 23 -5 37 8
28 26 24 70 -10 105 -26 26 -36 29 -94 29 -50 0 -72 -5 -98 -23z"/>
<path d="M2309 2236 c-47 -32 -69 -87 -69 -174 1 -115 48 -184 134 -197 60 -9
119 9 151 47 38 45 47 73 47 150 0 132 -56 198 -168 198 -46 0 -67 -5 -95 -24z
m150 -11 c78 -40 91 -236 21 -307 -40 -40 -110 -40 -150 0 -53 53 -61 209 -15
275 32 46 92 59 144 32z"/>
<path d="M2983 2240 c-101 -61 -106 -289 -8 -350 68 -42 175 -34 214 17 35 43
25 59 -14 24 -31 -26 -44 -31 -90 -31 -43 0 -59 5 -84 26 -26 22 -51 75 -51
109 0 6 34 10 83 10 88 1 133 17 161 57 18 26 21 80 6 109 -27 50 -155 67
-217 29z m140 -11 c30 -16 37 -28 37 -71 0 -28 -7 -42 -31 -62 -27 -23 -39
-26 -105 -26 -72 0 -74 1 -74 25 0 99 97 174 173 134z"/>
<path d="M3275 2249 c-9 -13 2 -24 23 -24 15 0 17 -19 20 -171 2 -135 6 -175
17 -184 29 -24 35 0 35 133 0 108 4 140 19 174 29 62 66 78 101 43 17 -17 19
-28 14 -56 -6 -34 -5 -35 14 -25 25 14 35 41 26 75 -8 33 -31 46 -83 46 -34 0
-44 -6 -70 -37 -30 -36 -31 -37 -31 -12 0 14 -5 30 -12 37 -15 15 -64 16 -73
1z"/>
<path d="M3680 2247 c-37 -18 -56 -60 -45 -93 12 -34 36 -49 61 -40 18 7 18 8
2 17 -22 12 -24 71 -4 88 19 16 79 25 111 17 34 -9 65 -61 65 -111 l0 -41 -52
-2 c-78 -3 -126 -20 -166 -57 -31 -28 -37 -40 -37 -74 0 -115 166 -117 237 -3
l23 37 3 -48 c2 -37 8 -51 28 -64 20 -13 30 -14 49 -5 35 16 33 41 -2 39 l-28
-2 -5 137 c-5 147 -16 177 -71 205 -31 16 -137 16 -169 0z m186 -219 c-20
-102 -155 -168 -196 -95 -13 24 -13 30 0 55 21 38 93 72 153 72 l50 0 -7 -32z"/>
<path d="M4016 2244 c-9 -24 -8 -26 17 -22 l22 3 5 -260 c3 -143 7 -261 8
-262 1 -2 11 -3 22 -3 19 0 20 7 20 105 l0 106 31 -23 c41 -31 116 -32 156 -2
63 47 94 158 73 260 -18 84 -51 114 -126 114 -54 0 -59 -2 -95 -40 l-39 -40
-6 27 c-4 16 -11 34 -17 41 -14 17 -64 15 -71 -4z m288 -47 c18 -24 21 -43 21
-115 0 -112 -22 -160 -83 -182 -37 -13 -45 -12 -76 3 -26 12 -37 26 -45 54
-25 90 -7 189 45 241 29 29 39 33 75 30 32 -2 47 -9 63 -31z"/>
<path d="M4484 2238 c3 -13 6 -100 6 -194 0 -134 3 -173 13 -177 8 -3 18 -2
23 1 5 4 8 91 6 200 l-4 192 -25 0 c-21 0 -24 -3 -19 -22z"/>
<path d="M4710 2247 c-37 -18 -56 -60 -45 -93 12 -34 36 -49 61 -40 18 7 18 8
2 17 -23 13 -24 72 -3 89 9 7 37 15 63 18 41 3 53 0 77 -20 23 -20 29 -35 33
-79 l4 -55 -53 -2 c-76 -3 -125 -19 -163 -52 -41 -36 -52 -80 -30 -121 39 -76
161 -55 227 38 l27 38 0 -47 c0 -40 4 -50 25 -64 21 -14 31 -15 50 -6 35 16
33 41 -2 39 l-28 -2 -5 137 c-5 147 -16 177 -71 205 -31 16 -137 16 -169 0z
m186 -219 c-20 -103 -155 -168 -196 -95 -13 24 -13 30 0 55 21 38 93 72 153
72 l50 0 -7 -32z"/>
<path d="M5545 2248 c-31 -17 -45 -39 -45 -74 0 -37 22 -64 51 -64 23 0 23 4
3 35 -32 49 6 95 76 95 67 0 98 -32 107 -112 5 -42 4 -50 -8 -46 -24 9 -138
-11 -179 -32 -66 -34 -89 -104 -50 -153 44 -55 142 -38 206 35 l32 36 6 -39
c9 -59 70 -87 98 -45 13 19 9 25 -19 23 l-28 -2 -6 130 c-7 145 -20 184 -69
210 -34 18 -145 20 -175 3z m190 -215 c-19 -78 -87 -137 -152 -131 -31 2 -39
8 -47 31 -24 67 47 127 152 127 54 0 54 0 47 -27z"/>
<path d="M5887 2253 c-15 -15 -6 -33 16 -30 22 2 22 2 25 -175 2 -149 5 -177
18 -182 30 -11 35 4 28 92 -11 153 22 252 89 270 92 24 117 -21 117 -209 0
-111 3 -139 15 -149 32 -26 38 2 33 158 -3 124 -7 154 -23 178 -29 45 -46 53
-104 54 -49 0 -57 -3 -92 -39 -32 -32 -39 -35 -39 -19 0 35 -19 58 -49 58 -15
0 -31 -3 -34 -7z"/>
<path d="M6421 2247 c-13 -6 -38 -29 -55 -50 -30 -38 -31 -42 -31 -137 0 -95
1 -99 31 -137 38 -47 95 -68 161 -58 55 8 103 52 103 94 l0 26 -20 -32 c-24
-40 -48 -53 -100 -53 -92 0 -133 51 -133 165 0 78 16 120 59 154 35 28 97 28
124 1 22 -22 27 -69 8 -88 -9 -9 -7 -13 7 -18 28 -11 58 32 51 71 -10 51 -47
75 -119 75 -34 0 -73 -6 -86 -13z"/>
<path d="M6790 2237 c-57 -38 -75 -80 -75 -177 0 -67 4 -92 20 -120 24 -42 94
-80 145 -80 49 1 118 34 132 65 17 37 4 40 -30 5 -26 -26 -38 -30 -82 -30 -28
0 -64 7 -79 15 -31 15 -61 69 -61 107 0 22 3 23 83 24 95 1 138 18 163 65 22
43 11 91 -27 123 -42 36 -139 37 -189 3z m155 -22 c32 -31 32 -75 1 -112 -22
-25 -31 -28 -106 -32 l-83 -3 5 47 c9 77 57 125 126 125 22 0 41 -8 57 -25z"/>
<path d="M7087 2253 c-4 -3 -7 -15 -7 -26 0 -16 3 -17 15 -7 12 10 18 10 30 0
12 -10 15 -43 15 -175 0 -134 3 -165 15 -175 10 -8 19 -9 25 -4 5 5 10 72 12
150 3 135 4 142 30 176 30 40 64 53 102 38 42 -16 50 -44 54 -205 3 -89 8
-153 15 -157 27 -17 32 4 29 107 -3 62 1 125 8 153 18 74 72 119 126 106 44
-11 54 -49 54 -202 0 -139 10 -185 38 -168 15 9 16 266 2 318 -14 48 -52 78
-101 78 -56 0 -84 -14 -113 -57 -16 -22 -26 -31 -26 -21 0 9 -12 30 -26 47
-23 27 -32 31 -76 31 -47 0 -54 -4 -90 -40 -36 -39 -38 -40 -38 -16 0 13 -7
32 -16 40 -15 16 -65 22 -77 9z"/>
<path d="M7968 2068 c2 -106 7 -197 11 -201 4 -4 14 -5 22 -2 12 4 13 37 9
198 -5 184 -6 192 -25 195 -20 3 -21 -1 -17 -190z"/>
<path d="M8287 2253 c-13 -12 -7 -35 7 -30 30 12 36 -16 36 -184 0 -130 3
-168 13 -172 27 -10 32 11 32 143 0 150 14 197 62 219 48 22 85 -14 68 -67 -8
-27 9 -36 29 -16 20 20 20 63 0 92 -24 35 -96 31 -134 -7 l-29 -28 -12 28 c-8
22 -18 29 -39 29 -14 0 -30 -3 -33 -7z"/>
<path d="M8642 2103 c3 -100 10 -168 18 -185 14 -29 64 -58 99 -58 37 0 89 27
107 55 l18 28 11 -34 c10 -29 17 -34 48 -37 32 -3 37 0 37 17 0 15 -5 19 -16
14 -9 -3 -20 0 -25 8 -5 8 -9 89 -9 182 0 166 0 167 -22 167 -23 0 -23 -2 -23
-133 0 -121 -2 -136 -24 -173 -31 -55 -78 -76 -125 -58 -33 13 -41 48 -46 204
-5 154 -5 155 -29 158 l-23 4 4 -159z"/>
<path d="M9130 2242 c-56 -30 -85 -92 -84 -182 0 -119 45 -180 143 -196 59 -9
123 17 146 60 10 18 16 39 13 47 -3 9 -10 3 -21 -18 -22 -42 -44 -53 -106 -53
-92 0 -139 70 -128 191 3 31 12 70 21 87 31 59 110 80 160 41 27 -22 33 -48
16 -79 -12 -22 0 -33 25 -24 45 18 35 103 -16 129 -40 21 -127 19 -169 -3z"/>
<path d="M9930 2238 c-51 -35 -75 -90 -75 -173 0 -121 45 -185 141 -201 54 -8
118 11 143 43 35 43 25 59 -14 24 -30 -26 -44 -31 -89 -31 -62 0 -100 24 -122
76 -27 65 -23 69 69 69 88 1 133 17 161 57 32 45 13 119 -35 144 -45 23 -140
18 -179 -8z m143 -9 c30 -16 37 -28 37 -70 0 -60 -35 -83 -131 -88 l-79 -3 0
26 c0 100 96 175 173 135z"/>
<path d="M10232 2248 c-19 -19 -14 -27 16 -25 l27 2 3 -171 c2 -139 5 -174 18
-185 9 -7 18 -8 24 -3 4 5 10 70 12 144 4 151 16 188 68 215 35 18 71 12 97
-17 15 -17 18 -42 21 -177 3 -96 8 -159 15 -163 27 -16 32 5 32 135 0 104 4
138 16 162 26 47 56 69 95 69 68 0 83 -44 84 -236 0 -124 5 -143 32 -133 10 4
12 34 10 138 -3 166 -7 189 -38 227 -22 26 -33 30 -72 30 -55 -1 -86 -16 -112
-54 l-18 -29 -16 31 c-21 40 -44 52 -102 52 -42 0 -51 -4 -86 -40 -33 -35 -38
-38 -38 -20 0 37 -19 60 -48 60 -16 0 -33 -5 -40 -12z"/>
<path d="M13018 2149 c-40 -23 -2 -97 41 -81 35 13 43 65 12 82 -24 12 -31 12
-53 -1z"/>
<path d="M13015 2000 c-36 -40 7 -96 55 -70 27 14 27 65 1 80 -27 14 -35 13
-56 -10z"/>
<path d="M12511 814 c0 -11 3 -14 6 -6 3 7 2 16 -1 19 -3 4 -6 -2 -5 -13z"/>
</g>
</svg>
