<?xml version="1.0" standalone="no"?>
<!DOCTYPE svg PUBLIC "-//W3C//DTD SVG 20010904//EN"
 "http://www.w3.org/TR/2001/REC-SVG-20010904/DTD/svg10.dtd">
<svg version="1.0" xmlns="http://www.w3.org/2000/svg"
 width="200.000000pt" height="200.000000pt" viewBox="0 0 200.000000 200.000000"
 preserveAspectRatio="xMidYMid meet">

<g transform="translate(0.000000,200.000000) scale(0.100000,-0.100000)" stroke="none">
<path d="M806 1934 c-3 -9 -6 -32 -6 -52 1 -62 -43 -567 -49 -574 -6 -6 -194
35 -501 110 -69 17 -126 30 -126 29 -1 -1 -29 -82 -61 -181 l-60 -179 41 -17
c177 -77 378 -160 387 -160 6 0 43 29 83 64 145 129 369 260 581 341 66 25
125 45 133 45 11 0 13 11 8 53 -3 28 -11 111 -16 184 -6 73 -15 176 -20 230
-5 54 -10 104 -10 111 0 9 -45 12 -189 12 -163 0 -190 -2 -195 -16z"/>
<path d="M1797 1437 c-1 -5 -33 -10 -70 -10 -43 -1 -63 -4 -55 -10 9 -6 6 -7
-9 -4 -13 3 -23 2 -23 -2 0 -8 -147 -46 -170 -44 -8 1 -17 -2 -20 -6 -3 -5
-48 -25 -100 -46 -52 -21 -139 -59 -192 -86 -54 -27 -98 -46 -98 -44 0 3 -9
-4 -20 -15 -12 -12 -25 -18 -30 -15 -6 4 -10 2 -10 -3 0 -5 -26 -26 -57 -47
-32 -21 -84 -58 -115 -82 -32 -24 -58 -41 -58 -38 0 3 -71 -65 -159 -152 -87
-87 -157 -161 -155 -165 2 -3 -6 -15 -19 -25 -13 -10 -24 -22 -25 -28 -4 -18
-63 -95 -73 -95 -6 0 -7 -5 -4 -10 3 -6 0 -13 -8 -16 -7 -2 -14 -10 -14 -17 0
-7 -17 -40 -37 -74 -20 -34 -36 -66 -36 -71 0 -5 27 -26 60 -46 33 -21 60 -42
60 -47 0 -6 4 -8 9 -5 5 3 20 -4 33 -17 14 -12 32 -23 39 -25 8 -2 21 -11 29
-20 9 -9 22 -18 29 -20 7 -1 37 -18 67 -37 30 -19 59 -35 64 -35 6 0 10 -4 10
-10 0 -28 22 -1 70 88 30 53 64 107 77 120 12 12 22 23 20 25 -5 6 98 139 128
165 18 17 32 32 30 34 -3 2 22 31 55 63 33 33 60 56 60 51 0 -4 12 6 26 23 33
40 195 161 206 155 4 -3 8 -1 8 4 0 15 101 76 123 75 10 -1 17 1 13 4 -8 9 53
45 65 38 5 -4 9 -1 9 5 0 6 5 8 10 5 6 -3 10 -1 10 6 0 7 3 10 6 6 4 -3 13 1
21 9 8 8 19 12 24 9 5 -4 9 -2 9 3 0 12 59 34 71 26 5 -3 9 -1 9 4 0 15 55 31
82 25 18 -4 20 -3 8 6 -13 9 -12 11 5 12 11 1 27 2 35 1 8 0 18 5 22 11 4 6
26 11 49 11 29 -1 37 1 28 8 -10 7 -8 8 9 5 12 -3 22 -1 22 4 0 5 8 9 18 9 15
0 18 9 19 50 0 28 -4 53 -9 56 -6 4 -8 -2 -3 -15 3 -11 4 -21 1 -21 -10 0 -55
160 -49 176 4 12 3 15 -5 10 -11 -7 -16 7 -15 42 1 6 -3 12 -7 12 -4 0 -11 11
-14 24 -5 19 -14 25 -46 28 -22 2 -41 -1 -43 -5z"/>
<path d="M1365 730 c-107 -87 -245 -263 -245 -311 0 -8 28 -45 62 -84 78 -90
110 -128 178 -208 51 -61 80 -82 80 -57 0 6 5 10 11 10 9 0 235 158 272 191
10 8 -283 499 -298 499 -6 0 -33 -18 -60 -40z"/>
</g>
</svg>
